<svg version="1.1" id="Layer_1" xmlns="http://www.w3.org/2000/svg" xmlns:xlink="http://www.w3.org/1999/xlink" x="0px" y="0px"
	 width="100%" viewBox="0 0 440 440" enable-background="new 0 0 440 440" xml:space="preserve">
<path fill="#49966A" opacity="1.000000" stroke="none" 
	d="
M437.997772,224.943420 
	C436.820770,254.447815 431.019592,282.348358 419.110199,309.006012 
	C411.004120,327.150330 400.692688,343.854248 388.180023,359.137238 
	C376.207062,373.761108 362.345703,386.529785 346.912109,397.527405 
	C323.367004,414.305145 297.595459,426.221588 269.299103,432.231567 
	C258.734161,434.475494 247.928574,435.709167 237.177734,436.912384 
	C229.957321,437.720428 222.620834,438.180603 215.369980,437.906158 
	C186.552429,436.815399 158.842545,430.986389 132.291306,419.220734 
	C104.223579,406.783081 79.972252,389.232147 59.400982,366.723511 
	C40.833195,346.407074 26.010933,323.455719 17.147635,297.258606 
	C12.232441,282.730835 7.833636,267.811401 5.428307,252.713806 
	C3.125093,238.257156 2.513097,223.281433 3.254881,208.640091 
	C4.912607,175.919891 13.753386,144.927444 29.485027,116.070084 
	C41.613884,93.821503 57.279537,74.242912 76.188408,57.475437 
	C99.481964,36.819839 126.164047,21.776724 155.962082,12.608061 
	C171.042679,7.967857 186.426788,4.505510 202.319763,3.985933 
	C211.095474,3.699036 219.888306,2.795958 228.638718,3.116863 
	C245.751221,3.744433 262.648132,6.192955 279.170776,10.937956 
	C302.736542,17.705599 324.690063,27.831593 344.784180,41.937466 
	C370.956604,60.310246 392.129333,83.254829 408.406555,110.798241 
	C420.562347,131.367615 428.589386,153.518372 433.664490,176.720093 
	C435.587616,185.511993 436.120239,194.631531 436.942383,203.633179 
	C437.573883,210.547440 437.665894,217.510986 437.997772,224.943420 
M137.009674,356.869934 
	C137.193893,357.083557 137.378098,357.297150 137.519974,358.302216 
	C136.480453,363.515045 135.621613,368.772888 134.339340,373.925293 
	C133.450592,377.496429 134.743393,379.242401 138.355560,380.136505 
	C142.443771,374.362915 146.623367,368.603760 150.587357,362.699860 
	C151.150208,361.861542 150.665222,360.319702 150.665222,359.103485 
	C150.172607,359.032043 149.679977,358.960602 149.187363,358.889130 
	C145.685593,363.794769 142.183838,368.700439 138.682068,373.606079 
	C138.780304,367.793488 139.989426,362.470428 140.832535,357.090027 
	C141.077972,355.523834 140.277954,353.793762 139.957169,352.138855 
	C138.442642,352.459961 136.758041,352.461548 135.444626,353.160583 
	C131.050034,355.499298 126.788177,358.087402 121.925125,359.965027 
	C121.739876,359.761658 121.554619,359.558289 121.711594,358.778381 
	C124.185631,355.240692 126.773331,351.773926 129.056183,348.116882 
	C129.649048,347.167145 129.289032,345.622589 129.366684,344.351227 
	C128.821579,344.276337 128.276459,344.201447 127.731346,344.126556 
	C123.205482,350.575134 118.679626,357.023682 114.292892,363.274017 
	C116.681587,366.703278 118.956551,366.485474 121.825768,364.676788 
	C126.593353,361.671234 131.581558,359.015594 137.009674,356.869934 
M236.450455,225.858215 
	C236.450455,243.602219 236.450455,261.346222 236.450455,279.123047 
	C251.646042,279.123047 266.053131,279.123047 280.432770,279.123047 
	C280.602936,278.294678 280.787689,277.813721 280.788269,277.332611 
	C280.814636,255.184692 280.907104,233.035950 280.687744,210.890320 
	C280.669373,209.032043 278.926422,206.723068 277.332214,205.424530 
	C267.404846,197.338318 257.194153,189.598068 247.331512,181.436066 
	C245.605255,180.007492 244.338150,177.185944 244.151169,174.901932 
	C243.697067,169.355270 244.003448,163.746338 244.003448,158.286163 
	C241.115707,158.286163 239.004929,158.286163 236.371170,158.286163 
	C236.371170,162.909073 236.371170,167.301361 236.371170,172.782700 
	C223.257019,162.478867 210.999542,152.848129 198.057419,142.679474 
	C198.057419,159.076813 197.979599,174.228180 198.169968,189.376175 
	C198.190491,191.007599 199.375381,193.108704 200.686646,194.162857 
	C211.053116,202.496536 221.647217,210.547348 231.999786,218.897812 
	C233.884064,220.417694 234.984802,222.908981 236.450455,225.858215 
M229.448990,271.563629 
	C229.359894,269.818451 229.270798,268.073242 229.154541,265.795776 
	C218.233398,265.795776 207.840057,265.795776 196.935852,265.795776 
	C196.935852,246.532379 196.935852,227.835693 196.935852,208.351883 
	C182.589767,217.349335 168.952560,225.827621 155.451508,234.517426 
	C154.419632,235.181564 153.928314,237.334274 153.903458,238.807190 
	C153.760117,247.302917 153.832733,255.802307 153.832397,264.300446 
	C153.832199,269.240967 153.832367,274.181488 153.832367,279.175323 
	C179.320221,279.175323 204.074463,279.175323 229.448792,279.175323 
	C229.448792,276.788544 229.448792,274.668518 229.448990,271.563629 
M241.974289,51.585922 
	C241.974289,49.966431 241.974289,48.346935 241.974289,46.641277 
	C234.910797,44.455513 235.030487,50.887070 232.760284,53.967991 
	C230.196472,57.447399 228.276764,61.401443 225.630310,65.909981 
	C223.349655,59.064114 221.297073,53.443237 219.633926,47.709396 
	C218.623810,44.226917 216.731415,43.230427 213.082138,44.334538 
	C212.345383,52.114437 211.603699,59.946316 210.862015,67.778191 
	C211.454834,67.956421 212.047668,68.134644 212.640488,68.312874 
	C215.680038,66.440567 214.574875,62.740532 215.008865,59.774357 
	C215.492386,56.469734 215.767441,53.134605 216.133240,49.812759 
	C218.792709,54.889706 220.395401,60.080116 222.284225,65.164223 
	C222.844955,66.673515 224.210419,67.883835 225.207153,69.231148 
	C226.579529,68.050179 228.312973,67.102722 229.256302,65.644249 
	C232.035873,61.346703 234.502396,56.846676 237.091431,52.425900 
	C237.478363,52.599834 237.865280,52.773769 238.252197,52.947704 
	C237.848724,57.397022 237.317596,61.840599 237.116989,66.299049 
	C237.054092,67.696815 237.880753,69.134598 238.300232,70.554070 
	C239.026367,69.334999 240.209229,68.182022 240.396912,66.885025 
	C241.086761,62.117702 241.446365,57.302589 241.974289,51.585922 
M94.329605,317.659332 
	C93.003799,318.870422 90.802406,319.916138 90.535919,321.327271 
	C89.994453,324.194458 88.887657,325.038788 86.028656,325.549530 
	C82.113876,326.248871 80.468231,330.720734 82.758904,334.269104 
	C85.520332,338.546783 88.875305,342.441284 92.175941,346.767151 
	C98.825737,341.538849 105.034081,336.657623 111.417664,331.638641 
	C108.197594,327.599976 105.601250,323.654633 102.282684,320.459381 
	C100.507912,318.750580 97.488144,318.334839 94.329605,317.659332 
M141.683884,65.826019 
	C133.798569,64.541840 128.589767,70.311852 121.643410,72.685547 
	C125.507324,80.361870 129.039200,87.378548 132.728317,94.707611 
	C136.637634,92.694016 140.046463,91.022369 143.374313,89.202621 
	C147.446381,86.975922 151.235382,84.183022 150.918259,78.997765 
	C150.566635,73.248688 148.122818,68.448212 141.683884,65.826019 
M186.670944,371.732635 
	C181.693100,370.583649 176.715256,369.434662 171.307907,368.186554 
	C170.219193,371.610382 168.991791,375.470337 167.783127,379.271393 
	C176.078033,382.909790 176.847519,382.978912 178.985626,380.147430 
	C176.679840,379.206207 174.455841,378.298401 171.165543,376.955322 
	C173.519562,375.368011 175.050842,373.768097 176.899139,373.200439 
	C181.578552,371.763245 186.829285,374.659790 188.158340,378.999756 
	C189.573669,383.621460 187.124985,389.437958 182.973618,391.315247 
	C178.703339,393.246277 173.000427,391.040741 170.649765,386.686279 
	C169.960617,385.409668 168.871658,384.348846 167.198288,382.206207 
	C166.830719,389.226227 169.962631,393.184052 175.727386,394.768616 
	C182.016815,396.497406 187.328339,394.436127 190.285614,389.118866 
	C193.671707,383.030548 192.595276,376.866974 186.670944,371.732635 
M331.338013,85.093712 
	C330.525421,82.030510 329.176331,82.388031 327.524994,84.482109 
	C324.289612,88.584930 321.042175,92.678238 317.145142,97.602692 
	C317.145142,89.660492 317.339935,82.932449 317.030121,76.227730 
	C316.933258,74.131920 315.475006,72.099037 314.276550,69.140198 
	C309.033478,75.731239 304.820129,80.871803 300.830536,86.180511 
	C300.073242,87.188164 300.202423,88.862007 299.922607,90.228462 
	C301.174591,89.511520 302.735962,89.060936 303.623291,88.030106 
	C306.915100,84.205887 309.984833,80.190521 313.107635,76.284935 
	C313.107635,83.501450 312.918823,90.295998 313.217529,97.069054 
	C313.312683,99.227066 314.702942,101.327972 315.958862,104.677055 
	C321.744751,97.373329 326.368866,91.536118 331.338013,85.093712 
M385.722015,156.018707 
	C384.970154,154.179169 384.406555,152.231491 383.425537,150.523560 
	C381.626099,147.390839 379.091553,145.549210 375.169006,146.616959 
	C370.954163,147.764297 370.522766,150.903732 370.889526,154.461670 
	C371.196014,157.435013 371.828491,160.390778 371.897064,163.363983 
	C371.921204,164.411530 370.919037,166.025085 369.989319,166.401321 
	C369.039276,166.785797 367.337524,166.314926 366.427307,165.616135 
	C363.096863,163.059433 362.646332,157.040726 365.056335,153.539032 
	C365.772217,152.498856 365.740692,150.944229 366.291260,148.608887 
	C358.556641,153.265137 357.967712,162.414932 364.250977,167.966583 
	C366.041412,169.548553 369.917511,170.097916 372.227814,169.317291 
	C373.890839,168.755402 374.962708,165.299637 375.510925,162.950928 
	C375.936768,161.126602 374.805908,158.987076 374.984772,157.044525 
	C375.200012,154.706345 375.666687,150.681564 376.727264,150.437225 
	C380.602753,149.544296 381.584412,153.168503 382.096313,156.059097 
	C382.403351,157.792831 381.468750,159.736923 381.144196,161.595535 
	C380.942566,162.750427 380.838104,163.922333 380.621704,165.623718 
	C385.673218,163.789047 386.304688,160.576157 385.722015,156.018707 
M102.099564,122.402550 
	C98.174774,117.654045 94.249985,112.905533 89.621300,107.305389 
	C97.189362,108.678116 103.671638,110.061470 110.222359,110.926758 
	C112.441925,111.219940 114.834419,110.203896 118.359940,109.567284 
	C111.755592,102.512138 106.338516,96.725288 100.419357,90.402092 
	C97.473732,95.751686 102.657333,96.782364 104.171051,99.237740 
	C105.895050,102.034203 108.311592,104.403725 110.427124,106.958801 
	C102.984306,106.434380 96.682076,105.005547 90.305031,104.108696 
	C88.270538,103.822578 86.037521,104.948196 82.777542,105.678131 
	C88.780380,112.132370 93.588676,117.405754 98.563469,122.517090 
	C99.169754,123.140015 100.670883,122.891983 102.099564,122.402550 
M363.259613,123.807312 
	C365.729980,121.642731 365.729980,121.642731 363.888428,119.189293 
	C359.036102,122.574890 354.172272,125.968521 349.308441,129.362152 
	C348.975281,129.019913 348.642151,128.677673 348.308990,128.335419 
	C350.295349,122.204048 352.477936,116.125801 354.160126,109.912079 
	C354.737885,107.777802 354.065094,105.304962 353.908539,101.728600 
	C345.960541,107.383728 339.519348,111.966751 331.971252,117.337334 
	C337.070038,119.950294 339.002838,116.028458 341.445587,114.701698 
	C344.513550,113.035362 347.283295,110.819931 350.181732,108.841454 
	C348.826630,116.022575 346.536926,122.401100 344.729004,128.913361 
	C344.196045,130.833160 345.025452,133.131165 345.347626,136.468903 
	C352.105133,131.666840 357.377869,127.919868 363.259613,123.807312 
M370.596252,275.908752 
	C368.515228,275.501526 366.074524,271.886383 364.048950,276.510040 
	C367.312012,278.296967 370.148376,279.850250 373.011810,281.418335 
	C372.550842,282.414764 372.317047,283.038361 371.989471,283.608032 
	C370.429871,286.320221 369.421112,289.930817 367.074188,291.412323 
	C365.397400,292.470795 361.928528,290.435730 359.226898,290.248291 
	C358.120392,290.171570 356.928497,291.325439 355.775452,291.919464 
	C355.909332,292.368042 356.043182,292.816589 356.177063,293.265167 
	C360.007660,294.357727 363.838257,295.450317 367.668823,296.542877 
	C369.560699,298.408844 371.971069,301.056427 374.252136,300.949402 
	C376.618195,300.838379 379.491425,298.505127 381.011902,296.346985 
	C383.524689,292.780426 385.129395,288.574097 387.188904,284.494446 
	C381.572174,281.576233 376.421936,278.900391 370.596252,275.908752 
M180.566437,70.126701 
	C178.842926,70.427505 177.119431,70.728302 175.127472,71.075958 
	C174.660034,68.349884 174.284851,66.161781 173.872284,63.755692 
	C177.600693,63.054642 180.740295,62.643925 183.767212,61.819443 
	C185.282700,61.406647 186.592667,60.239246 187.995575,59.413139 
	C186.448883,59.138126 184.865479,58.506607 183.363037,58.661297 
	C180.095901,58.997684 176.870056,59.735153 173.222214,60.380333 
	C172.737900,58.026127 172.321671,56.002892 171.848724,53.703976 
	C176.553513,52.756702 180.790482,51.992710 184.968033,50.982899 
	C185.748489,50.794247 186.290756,49.620148 186.942947,48.900814 
	C186.136795,48.574085 185.264221,47.858147 184.535080,47.982601 
	C179.021698,48.923615 173.536469,50.029549 167.646759,51.159954 
	C169.262711,59.424778 170.774506,67.156898 172.318100,75.051697 
	C178.113297,73.959358 183.358627,73.078072 188.537750,71.904587 
	C189.584015,71.667519 190.379700,70.324493 191.290909,69.491348 
	C190.935303,69.129593 190.579697,68.767838 190.224091,68.406090 
	C187.280518,68.940979 184.336960,69.475868 180.566437,70.126701 
M352.306427,316.205475 
	C350.331970,314.488098 348.357483,312.770752 346.124268,310.828339 
	C341.718201,315.800690 337.506287,320.553955 332.763275,325.906555 
	C337.730530,327.744598 338.402344,323.687103 340.289246,322.161560 
	C342.538727,320.342926 344.346619,317.978027 346.447052,315.742035 
	C348.398773,317.545807 349.969025,318.997040 351.792145,320.681976 
	C349.033844,323.786774 346.325958,326.696198 343.816345,329.767609 
	C343.262085,330.445923 343.410004,331.697968 343.234619,332.685852 
	C344.192444,332.462067 345.464966,332.552185 346.054504,331.961121 
	C348.859772,329.148499 351.479156,326.150543 354.375824,322.988037 
	C356.118317,324.555603 357.667755,325.949493 359.428070,327.533112 
	C355.857117,331.656616 352.535156,335.492584 349.213165,339.328583 
	C349.834167,339.988525 350.455139,340.648468 351.076111,341.308441 
	C355.905396,337.163513 359.906219,332.096100 364.319763,327.021637 
	C360.219574,323.342041 356.517395,320.019653 352.306427,316.205475 
M82.597107,295.914551 
	C79.758469,297.163696 76.919830,298.412872 73.706879,299.826721 
	C71.618568,295.381500 69.674034,291.242310 67.617706,286.865173 
	C71.152107,285.037201 74.337074,283.389954 78.649567,281.159576 
	C76.704353,280.290680 75.371468,279.158478 74.670357,279.466125 
	C68.446960,282.196838 62.315144,285.141418 56.221233,288.154266 
	C55.588799,288.466949 55.377728,289.631958 54.971149,290.401489 
	C55.891758,290.669373 56.942219,291.360687 57.708618,291.125702 
	C60.006615,290.420929 62.193657,289.354370 64.630974,288.343170 
	C66.713142,292.918182 68.596062,297.055389 70.541870,301.330811 
	C67.472488,302.903961 64.983566,304.179596 60.896336,306.274445 
	C63.336597,307.052155 64.753830,308.042114 65.577980,307.680481 
	C71.651276,305.015442 77.641747,302.152100 83.581543,299.196930 
	C86.096542,297.945648 85.763359,296.616730 82.597107,295.914551 
M263.677124,71.075409 
	C267.262695,66.468994 270.742279,70.262817 274.281952,71.179398 
	C277.593048,72.036797 278.536865,74.200409 278.524780,77.438766 
	C278.519592,78.832443 279.755188,80.230751 280.427094,81.626953 
	C281.233917,73.106819 281.300781,65.179077 281.198273,57.253517 
	C281.161469,54.408772 279.158508,52.935833 276.980377,54.745983 
	C270.585693,60.060307 264.562988,65.822197 258.394592,71.408806 
	C258.651123,71.876587 258.907623,72.344368 259.164124,72.812141 
	C260.473511,72.404449 261.782867,71.996765 263.677124,71.075409 
M318.489716,348.928864 
	C317.785614,349.372162 317.061920,349.787476 316.380615,350.263367 
	C312.612274,352.895599 309.002319,356.365021 304.336548,351.517120 
	C303.873444,351.035950 302.064514,351.850067 299.635101,352.286896 
	C307.583862,357.471375 314.204071,361.897339 320.945038,366.130981 
	C323.517914,367.746918 325.433624,366.359985 325.171631,363.673767 
	C324.368530,355.439972 323.134216,347.248230 322.067596,339.040100 
	C321.525940,338.971100 320.984283,338.902069 320.442627,338.833038 
	C320.025940,340.300964 319.437408,341.745941 319.237823,343.242798 
	C319.008636,344.961456 319.123993,346.726105 318.489716,348.928864 
M70.633774,173.351669 
	C69.975845,175.863388 68.483803,175.660736 66.517822,174.812424 
	C61.801754,172.777512 57.046383,170.825226 52.241398,169.013229 
	C51.450672,168.715027 50.327755,169.297745 49.358360,169.473358 
	C49.774368,170.339508 49.974365,171.707916 50.639801,171.994110 
	C57.302101,174.859436 64.040962,177.546722 71.187927,180.459290 
	C73.585594,174.572220 75.810150,169.110184 78.034706,163.648148 
	C77.719490,163.303696 77.404282,162.959244 77.089073,162.614792 
	C76.087044,163.325806 74.672623,163.820389 74.163651,164.790192 
	C72.861244,167.271820 71.961807,169.964951 70.633774,173.351669 
M269.572876,370.590485 
	C273.652008,369.304108 277.731171,368.017761 282.197571,366.609253 
	C284.195465,372.528992 285.932617,378.036255 287.973663,383.428467 
	C288.396515,384.545685 289.948212,385.235596 290.979614,386.122467 
	C291.340485,385.715332 291.701355,385.308197 292.062225,384.901062 
	C289.616852,377.546722 287.171509,370.192413 284.571503,362.372955 
	C279.126160,364.106415 274.066711,365.620941 269.080505,367.347046 
	C266.768677,368.147278 266.960815,369.494934 269.572876,370.590485 
M69.549507,130.050140 
	C68.348885,130.260559 67.148262,130.470978 65.947639,130.681412 
	C72.025940,136.030045 77.772606,139.995605 83.660454,143.739120 
	C84.540939,144.298920 86.083748,143.817017 87.320160,143.817017 
	C87.369728,143.248337 87.419296,142.679657 87.468864,142.110977 
	C81.676056,138.243057 75.883247,134.375137 69.549507,130.050140 
z"/>
<path fill="#FDFEFD" opacity="1.000000" stroke="none" 
	d="
M236.448853,225.405029 
	C234.984802,222.908981 233.884064,220.417694 231.999786,218.897812 
	C221.647217,210.547348 211.053116,202.496536 200.686646,194.162857 
	C199.375381,193.108704 198.190491,191.007599 198.169968,189.376175 
	C197.979599,174.228180 198.057419,159.076813 198.057419,142.679474 
	C210.999542,152.848129 223.257019,162.478867 236.371170,172.782700 
	C236.371170,167.301361 236.371170,162.909073 236.371170,158.286163 
	C239.004929,158.286163 241.115707,158.286163 244.003448,158.286163 
	C244.003448,163.746338 243.697067,169.355270 244.151169,174.901932 
	C244.338150,177.185944 245.605255,180.007492 247.331512,181.436066 
	C257.194153,189.598068 267.404846,197.338318 277.332214,205.424530 
	C278.926422,206.723068 280.669373,209.032043 280.687744,210.890320 
	C280.907104,233.035950 280.814636,255.184692 280.788269,277.332611 
	C280.787689,277.813721 280.602936,278.294678 280.432770,279.123047 
	C266.053131,279.123047 251.646042,279.123047 236.450455,279.123047 
	C236.450455,261.346222 236.450455,243.602219 236.448853,225.405029 
z"/>
<path fill="#FEFFFE" opacity="1.000000" stroke="none" 
	d="
M229.448883,272.056030 
	C229.448792,274.668518 229.448792,276.788544 229.448792,279.175323 
	C204.074463,279.175323 179.320221,279.175323 153.832367,279.175323 
	C153.832367,274.181488 153.832199,269.240967 153.832397,264.300446 
	C153.832733,255.802307 153.760117,247.302917 153.903458,238.807190 
	C153.928314,237.334274 154.419632,235.181564 155.451508,234.517426 
	C168.952560,225.827621 182.589767,217.349335 196.935852,208.351883 
	C196.935852,227.835693 196.935852,246.532379 196.935852,265.795776 
	C207.840057,265.795776 218.233398,265.795776 229.154541,265.795776 
	C229.270798,268.073242 229.359894,269.818451 229.448883,272.056030 
z"/>
<path fill="#F0F6F3" opacity="1.000000" stroke="none" 
	d="
M241.952271,52.045692 
	C241.446365,57.302589 241.086761,62.117702 240.396912,66.885025 
	C240.209229,68.182022 239.026367,69.334999 238.300232,70.554070 
	C237.880753,69.134598 237.054092,67.696815 237.116989,66.299049 
	C237.317596,61.840599 237.848724,57.397022 238.252197,52.947704 
	C237.865280,52.773769 237.478363,52.599834 237.091431,52.425900 
	C234.502396,56.846676 232.035873,61.346703 229.256302,65.644249 
	C228.312973,67.102722 226.579529,68.050179 225.207153,69.231155 
	C224.210419,67.883835 222.844955,66.673515 222.284225,65.164223 
	C220.395401,60.080116 218.792709,54.889706 216.133240,49.812759 
	C215.767441,53.134605 215.492386,56.469734 215.008865,59.774357 
	C214.574875,62.740532 215.680038,66.440567 212.640488,68.312874 
	C212.047668,68.134644 211.454834,67.956421 210.862015,67.778191 
	C211.603699,59.946316 212.345383,52.114437 213.082138,44.334538 
	C216.731415,43.230427 218.623810,44.226917 219.633926,47.709396 
	C221.297073,53.443237 223.349655,59.064114 225.630310,65.909981 
	C228.276764,61.401443 230.196472,57.447399 232.760284,53.967991 
	C235.030487,50.887070 234.910797,44.455513 241.974289,46.641277 
	C241.974289,48.346935 241.974289,49.966431 241.952271,52.045692 
z"/>
<path fill="#EFF6F2" opacity="1.000000" stroke="none" 
	d="
M122.475494,360.580017 
	C126.788177,358.087402 131.050034,355.499298 135.444626,353.160583 
	C136.758041,352.461548 138.442642,352.459961 139.957169,352.138855 
	C140.277954,353.793762 141.077972,355.523834 140.832535,357.090027 
	C139.989426,362.470428 138.780304,367.793488 138.682068,373.606079 
	C142.183838,368.700439 145.685593,363.794769 149.187363,358.889130 
	C149.679977,358.960602 150.172607,359.032043 150.665222,359.103485 
	C150.665222,360.319702 151.150208,361.861542 150.587357,362.699860 
	C146.623367,368.603760 142.443771,374.362915 138.355560,380.136505 
	C134.743393,379.242401 133.450592,377.496429 134.339340,373.925293 
	C135.621613,368.772888 136.480453,363.515045 137.657974,357.625885 
	C137.356277,356.703888 136.916565,356.458221 136.476852,356.212585 
	C131.581558,359.015594 126.593353,361.671234 121.825768,364.676788 
	C118.956551,366.485474 116.681587,366.703278 114.292892,363.274017 
	C118.679626,357.023682 123.205482,350.575134 127.731346,344.126556 
	C128.276459,344.201447 128.821579,344.276337 129.366684,344.351227 
	C129.289032,345.622589 129.649048,347.167145 129.056183,348.116882 
	C126.773331,351.773926 124.185631,355.240692 121.316086,359.239746 
	C120.818008,360.062378 120.715424,360.423676 120.612839,360.784973 
	C121.233734,360.716675 121.854614,360.648346 122.475494,360.580017 
z"/>
<path fill="#F3F8F5" opacity="1.000000" stroke="none" 
	d="
M94.679916,317.497437 
	C97.488144,318.334839 100.507912,318.750580 102.282684,320.459381 
	C105.601250,323.654633 108.197594,327.599976 111.417664,331.638641 
	C105.034081,336.657623 98.825737,341.538849 92.175941,346.767151 
	C88.875305,342.441284 85.520332,338.546783 82.758904,334.269104 
	C80.468231,330.720734 82.113876,326.248871 86.028656,325.549530 
	C88.887657,325.038788 89.994453,324.194458 90.535919,321.327271 
	C90.802406,319.916138 93.003799,318.870422 94.679916,317.497437 
M103.169846,333.681976 
	C104.244987,332.739075 105.320122,331.796173 106.583443,330.688202 
	C104.130623,327.675354 102.159744,324.763641 99.655479,322.422424 
	C98.667160,321.498474 95.677086,321.095947 95.040474,321.786133 
	C94.026054,322.885834 93.427094,325.496826 94.062408,326.758911 
	C95.447693,329.510803 97.625252,331.901550 99.713799,334.229248 
	C100.120544,334.682556 101.592102,334.180450 103.169846,333.681976 
M92.704300,330.775024 
	C90.970787,329.016571 89.319176,326.529388 86.542480,329.085358 
	C83.851418,331.562531 86.104935,333.610260 87.523842,335.554596 
	C89.070709,337.674225 90.796089,339.663605 92.607254,341.912933 
	C94.545837,340.360626 96.175652,339.055573 97.963081,337.624268 
	C96.173485,335.309570 94.653496,333.343597 92.704300,330.775024 
z"/>
<path fill="#EFF6F2" opacity="1.000000" stroke="none" 
	d="
M142.053497,65.906189 
	C148.122818,68.448212 150.566635,73.248688 150.918259,78.997765 
	C151.235382,84.183022 147.446381,86.975922 143.374313,89.202621 
	C140.046463,91.022369 136.637634,92.694016 132.728317,94.707611 
	C129.039200,87.378548 125.507324,80.361870 121.643410,72.685547 
	C128.589767,70.311852 133.798569,64.541840 142.053497,65.906189 
M138.511826,88.040749 
	C139.390793,87.582535 140.276505,87.136734 141.147659,86.664108 
	C147.453079,83.243233 148.723541,79.977074 145.942429,74.357773 
	C143.071106,68.556206 139.552002,67.624252 132.810379,70.919212 
	C130.766693,71.918068 128.759491,72.991577 126.413559,74.196266 
	C129.183899,79.715866 131.742645,84.813866 134.375458,90.059464 
	C135.793549,89.369629 136.827423,88.866699 138.511826,88.040749 
z"/>
<path fill="#F3F8F5" opacity="1.000000" stroke="none" 
	d="
M186.993393,371.923248 
	C192.595276,376.866974 193.671707,383.030548 190.285614,389.118866 
	C187.328339,394.436127 182.016815,396.497406 175.727386,394.768616 
	C169.962631,393.184052 166.830719,389.226227 167.198288,382.206207 
	C168.871658,384.348846 169.960617,385.409668 170.649765,386.686279 
	C173.000427,391.040741 178.703339,393.246277 182.973618,391.315247 
	C187.124985,389.437958 189.573669,383.621460 188.158340,378.999756 
	C186.829285,374.659790 181.578552,371.763245 176.899139,373.200439 
	C175.050842,373.768097 173.519562,375.368011 171.165543,376.955322 
	C174.455841,378.298401 176.679840,379.206207 178.985626,380.147430 
	C176.847519,382.978912 176.078033,382.909790 167.783127,379.271393 
	C168.991791,375.470337 170.219193,371.610382 171.307907,368.186554 
	C176.715256,369.434662 181.693100,370.583649 186.993393,371.923248 
z"/>
<path fill="#EDF5F0" opacity="1.000000" stroke="none" 
	d="
M331.165527,85.396317 
	C326.368866,91.536118 321.744751,97.373329 315.958862,104.677055 
	C314.702942,101.327972 313.312683,99.227066 313.217529,97.069054 
	C312.918823,90.295998 313.107635,83.501450 313.107635,76.284935 
	C309.984833,80.190521 306.915100,84.205887 303.623291,88.030106 
	C302.735962,89.060936 301.174591,89.511520 299.922607,90.228462 
	C300.202423,88.862007 300.073242,87.188164 300.830536,86.180511 
	C304.820129,80.871803 309.033478,75.731239 314.276550,69.140198 
	C315.475006,72.099037 316.933258,74.131920 317.030121,76.227730 
	C317.339935,82.932449 317.145142,89.660492 317.145142,97.602692 
	C321.042175,92.678238 324.289612,88.584930 327.524994,84.482109 
	C329.176331,82.388031 330.525421,82.030510 331.165527,85.396317 
z"/>
<path fill="#F1F7F4" opacity="1.000000" stroke="none" 
	d="
M385.803833,156.418213 
	C386.304688,160.576157 385.673218,163.789047 380.621704,165.623718 
	C380.838104,163.922333 380.942566,162.750427 381.144196,161.595535 
	C381.468750,159.736923 382.403351,157.792831 382.096313,156.059097 
	C381.584412,153.168503 380.602753,149.544296 376.727264,150.437225 
	C375.666687,150.681564 375.200012,154.706345 374.984772,157.044525 
	C374.805908,158.987076 375.936768,161.126602 375.510925,162.950928 
	C374.962708,165.299637 373.890839,168.755402 372.227814,169.317291 
	C369.917511,170.097916 366.041412,169.548553 364.250977,167.966583 
	C357.967712,162.414932 358.556641,153.265137 366.291260,148.608887 
	C365.740692,150.944229 365.772217,152.498856 365.056335,153.539032 
	C362.646332,157.040726 363.096863,163.059433 366.427307,165.616135 
	C367.337524,166.314926 369.039276,166.785797 369.989319,166.401321 
	C370.919037,166.025085 371.921204,164.411530 371.897064,163.363983 
	C371.828491,160.390778 371.196014,157.435013 370.889526,154.461670 
	C370.522766,150.903732 370.954163,147.764297 375.169006,146.616959 
	C379.091553,145.549210 381.626099,147.390839 383.425537,150.523560 
	C384.406555,152.231491 384.970154,154.179169 385.803833,156.418213 
z"/>
<path fill="#F0F6F3" opacity="1.000000" stroke="none" 
	d="
M101.928436,122.725067 
	C100.670883,122.891983 99.169754,123.140015 98.563469,122.517090 
	C93.588676,117.405754 88.780380,112.132370 82.777542,105.678131 
	C86.037521,104.948196 88.270538,103.822578 90.305031,104.108696 
	C96.682076,105.005547 102.984306,106.434380 110.427124,106.958801 
	C108.311592,104.403725 105.895050,102.034203 104.171051,99.237740 
	C102.657333,96.782364 97.473732,95.751686 100.419357,90.402092 
	C106.338516,96.725288 111.755592,102.512138 118.359940,109.567284 
	C114.834419,110.203896 112.441925,111.219940 110.222359,110.926758 
	C103.671638,110.061470 97.189362,108.678116 89.621300,107.305389 
	C94.249985,112.905533 98.174774,117.654045 101.928436,122.725067 
z"/>
<path fill="#F2F7F4" opacity="1.000000" stroke="none" 
	d="
M362.955139,123.990112 
	C357.377869,127.919868 352.105133,131.666840 345.347626,136.468903 
	C345.025452,133.131165 344.196045,130.833160 344.729004,128.913361 
	C346.536926,122.401100 348.826630,116.022575 350.181732,108.841454 
	C347.283295,110.819931 344.513550,113.035362 341.445587,114.701698 
	C339.002838,116.028458 337.070038,119.950294 331.971252,117.337334 
	C339.519348,111.966751 345.960541,107.383728 353.908539,101.728600 
	C354.065094,105.304962 354.737885,107.777802 354.160126,109.912079 
	C352.477936,116.125801 350.295349,122.204048 348.308990,128.335419 
	C348.642151,128.677673 348.975281,129.019913 349.308441,129.362152 
	C354.172272,125.968521 359.036102,122.574890 363.888428,119.189293 
	C365.729980,121.642731 365.729980,121.642731 362.955139,123.990112 
M348.570618,129.024506 
	C348.690857,129.139755 348.811066,129.255020 348.570618,129.024506 
z"/>
<path fill="#F1F7F4" opacity="1.000000" stroke="none" 
	d="
M370.933960,276.066650 
	C376.421936,278.900391 381.572174,281.576233 387.188904,284.494446 
	C385.129395,288.574097 383.524689,292.780426 381.011902,296.346985 
	C379.491425,298.505127 376.618195,300.838379 374.252136,300.949402 
	C371.971069,301.056427 369.560699,298.408844 367.668823,296.542877 
	C363.838257,295.450317 360.007660,294.357727 356.177063,293.265167 
	C356.043182,292.816589 355.909332,292.368042 355.775452,291.919464 
	C356.928497,291.325439 358.120392,290.171570 359.226898,290.248291 
	C361.928528,290.435730 365.397400,292.470795 367.074188,291.412323 
	C369.421112,289.930817 370.429871,286.320221 371.989471,283.608032 
	C372.317047,283.038361 372.550842,282.414764 373.011810,281.418335 
	C370.148376,279.850250 367.312012,278.296967 364.048950,276.510040 
	C366.074524,271.886383 368.515228,275.501526 370.933960,276.066650 
M374.458771,297.885742 
	C377.547607,294.376007 380.636475,290.866272 384.190125,286.828369 
	C380.558441,284.986511 378.308624,283.845490 375.867004,282.607208 
	C374.227264,285.888000 372.828644,288.496735 371.606018,291.185547 
	C370.362274,293.920776 370.461761,296.351746 374.458771,297.885742 
z"/>
<path fill="#F2F7F4" opacity="1.000000" stroke="none" 
	d="
M180.979919,70.068726 
	C184.336960,69.475868 187.280518,68.940979 190.224091,68.406090 
	C190.579697,68.767838 190.935303,69.129593 191.290909,69.491348 
	C190.379700,70.324493 189.584015,71.667519 188.537750,71.904587 
	C183.358627,73.078072 178.113297,73.959358 172.318100,75.051697 
	C170.774506,67.156898 169.262711,59.424778 167.646759,51.159954 
	C173.536469,50.029549 179.021698,48.923615 184.535080,47.982601 
	C185.264221,47.858147 186.136795,48.574085 186.942947,48.900818 
	C186.290756,49.620148 185.748489,50.794247 184.968033,50.982899 
	C180.790482,51.992710 176.553513,52.756702 171.848724,53.703976 
	C172.321671,56.002892 172.737900,58.026127 173.222214,60.380333 
	C176.870056,59.735153 180.095901,58.997684 183.363037,58.661297 
	C184.865479,58.506607 186.448883,59.138126 187.995575,59.413139 
	C186.592667,60.239246 185.282700,61.406647 183.767212,61.819443 
	C180.740295,62.643925 177.600693,63.054642 173.872284,63.755692 
	C174.284851,66.161781 174.660034,68.349884 175.127472,71.075958 
	C177.119431,70.728302 178.842926,70.427505 180.979919,70.068726 
z"/>
<path fill="#EDF5F0" opacity="1.000000" stroke="none" 
	d="
M352.560822,316.451355 
	C356.517395,320.019653 360.219574,323.342041 364.319763,327.021637 
	C359.906219,332.096100 355.905396,337.163513 351.076111,341.308441 
	C350.455139,340.648468 349.834167,339.988525 349.213165,339.328583 
	C352.535156,335.492584 355.857117,331.656616 359.428070,327.533112 
	C357.667755,325.949493 356.118317,324.555603 354.375824,322.988037 
	C351.479156,326.150543 348.859772,329.148499 346.054504,331.961121 
	C345.464966,332.552185 344.192444,332.462067 343.234619,332.685852 
	C343.410004,331.697968 343.262085,330.445923 343.816345,329.767609 
	C346.325958,326.696198 349.033844,323.786774 351.792145,320.681976 
	C349.969025,318.997040 348.398773,317.545807 346.447052,315.742035 
	C344.346619,317.978027 342.538727,320.342926 340.289246,322.161560 
	C338.402344,323.687103 337.730530,327.744598 332.763275,325.906555 
	C337.506287,320.553955 341.718201,315.800690 346.124268,310.828339 
	C348.357483,312.770752 350.331970,314.488098 352.560822,316.451355 
z"/>
<path fill="#EDF5F0" opacity="1.000000" stroke="none" 
	d="
M82.903587,295.812683 
	C85.763359,296.616730 86.096542,297.945648 83.581543,299.196930 
	C77.641747,302.152100 71.651276,305.015442 65.577980,307.680481 
	C64.753830,308.042114 63.336597,307.052155 60.896336,306.274445 
	C64.983566,304.179596 67.472488,302.903961 70.541870,301.330811 
	C68.596062,297.055389 66.713142,292.918182 64.630974,288.343170 
	C62.193657,289.354370 60.006615,290.420929 57.708618,291.125702 
	C56.942219,291.360687 55.891758,290.669373 54.971149,290.401489 
	C55.377728,289.631958 55.588799,288.466949 56.221233,288.154266 
	C62.315144,285.141418 68.446960,282.196838 74.670357,279.466125 
	C75.371468,279.158478 76.704353,280.290680 78.649567,281.159576 
	C74.337074,283.389954 71.152107,285.037201 67.617706,286.865173 
	C69.674034,291.242310 71.618568,295.381500 73.706879,299.826721 
	C76.919830,298.412872 79.758469,297.163696 82.903587,295.812683 
z"/>
<path fill="#EEF5F1" opacity="1.000000" stroke="none" 
	d="
M263.384705,71.332245 
	C261.782867,71.996765 260.473511,72.404449 259.164124,72.812141 
	C258.907623,72.344368 258.651123,71.876587 258.394592,71.408806 
	C264.562988,65.822197 270.585693,60.060307 276.980377,54.745983 
	C279.158508,52.935833 281.161469,54.408772 281.198273,57.253517 
	C281.300781,65.179077 281.233917,73.106819 280.427094,81.626953 
	C279.755188,80.230751 278.519592,78.832443 278.524780,77.438766 
	C278.536865,74.200409 277.593048,72.036797 274.281952,71.179398 
	C270.742279,70.262817 267.262695,66.468994 263.384705,71.332245 
M274.067047,67.625175 
	C275.280701,68.015205 276.494385,68.405235 277.775940,68.817085 
	C277.775940,65.488838 277.775940,62.453590 277.775940,58.336678 
	C274.711792,61.120811 272.384674,63.235252 269.753204,65.626236 
	C271.335846,66.335258 272.374390,66.800529 274.067047,67.625175 
z"/>
<path fill="#F1F7F4" opacity="1.000000" stroke="none" 
	d="
M318.789734,348.699829 
	C319.123993,346.726105 319.008636,344.961456 319.237823,343.242798 
	C319.437408,341.745941 320.025940,340.300964 320.442627,338.833038 
	C320.984283,338.902069 321.525940,338.971100 322.067596,339.040100 
	C323.134216,347.248230 324.368530,355.439972 325.171631,363.673767 
	C325.433624,366.359985 323.517914,367.746918 320.945038,366.130981 
	C314.204071,361.897339 307.583862,357.471375 299.635101,352.286896 
	C302.064514,351.850067 303.873444,351.035950 304.336548,351.517120 
	C309.002319,356.365021 312.612274,352.895599 316.380615,350.263367 
	C317.061920,349.787476 317.785614,349.372162 318.789734,348.699829 
M320.895966,354.143524 
	C320.185455,353.646362 319.168762,352.563965 318.815125,352.748962 
	C316.825897,353.789734 314.996216,355.135498 312.639954,356.688354 
	C315.643280,358.662201 318.190857,360.336517 320.965851,362.160278 
	C320.965851,359.414490 320.965851,357.168274 320.895966,354.143524 
z"/>
<path fill="#F2F7F4" opacity="1.000000" stroke="none" 
	d="
M70.767494,172.962585 
	C71.961807,169.964951 72.861244,167.271820 74.163651,164.790192 
	C74.672623,163.820389 76.087044,163.325806 77.089073,162.614792 
	C77.404282,162.959244 77.719490,163.303696 78.034706,163.648148 
	C75.810150,169.110184 73.585594,174.572220 71.187927,180.459290 
	C64.040962,177.546722 57.302101,174.859436 50.639801,171.994110 
	C49.974365,171.707916 49.774368,170.339508 49.358360,169.473358 
	C50.327755,169.297745 51.450672,168.715027 52.241398,169.013229 
	C57.046383,170.825226 61.801754,172.777512 66.517822,174.812424 
	C68.483803,175.660736 69.975845,175.863388 70.767494,172.962585 
z"/>
<path fill="#F2F7F4" opacity="1.000000" stroke="none" 
	d="
M269.221039,370.674316 
	C266.960815,369.494934 266.768677,368.147278 269.080505,367.347046 
	C274.066711,365.620941 279.126160,364.106415 284.571503,362.372955 
	C287.171509,370.192413 289.616852,377.546722 292.062225,384.901062 
	C291.701355,385.308197 291.340485,385.715332 290.979614,386.122467 
	C289.948212,385.235596 288.396515,384.545685 287.973663,383.428467 
	C285.932617,378.036255 284.195465,372.528992 282.197571,366.609253 
	C277.731171,368.017761 273.652008,369.304108 269.221039,370.674316 
z"/>
<path fill="#EEF5F1" opacity="1.000000" stroke="none" 
	d="
M69.819977,130.278687 
	C75.883247,134.375137 81.676056,138.243057 87.468864,142.110977 
	C87.419296,142.679657 87.369728,143.248337 87.320160,143.817017 
	C86.083748,143.817017 84.540939,144.298920 83.660454,143.739120 
	C77.772606,139.995605 72.025940,136.030045 65.947639,130.681412 
	C67.148262,130.470978 68.348885,130.260559 69.819977,130.278687 
z"/>
<path fill="#49966A" opacity="1.000000" stroke="none" 
	d="
M122.200310,360.272522 
	C121.854614,360.648346 121.233734,360.716675 120.612839,360.784973 
	C120.715424,360.423676 120.818008,360.062378 121.144974,359.527985 
	C121.554619,359.558289 121.739876,359.761658 122.200310,360.272522 
z"/>
<path fill="#49966A" opacity="1.000000" stroke="none" 
	d="
M136.743256,356.541260 
	C136.916565,356.458221 137.356277,356.703888 137.679138,357.230133 
	C137.378098,357.297150 137.193893,357.083557 136.743256,356.541260 
z"/>
<path fill="#509A70" opacity="1.000000" stroke="none" 
	d="
M102.871178,333.900513 
	C101.592102,334.180450 100.120544,334.682556 99.713799,334.229248 
	C97.625252,331.901550 95.447693,329.510803 94.062408,326.758911 
	C93.427094,325.496826 94.026054,322.885834 95.040474,321.786133 
	C95.677086,321.095947 98.667160,321.498474 99.655479,322.422424 
	C102.159744,324.763641 104.130623,327.675354 106.583443,330.688202 
	C105.320122,331.796173 104.244987,332.739075 102.871178,333.900513 
z"/>
<path fill="#559D74" opacity="1.000000" stroke="none" 
	d="
M92.918900,331.076324 
	C94.653496,333.343597 96.173485,335.309570 97.963081,337.624268 
	C96.175652,339.055573 94.545837,340.360626 92.607254,341.912933 
	C90.796089,339.663605 89.070709,337.674225 87.523842,335.554596 
	C86.104935,333.610260 83.851418,331.562531 86.542480,329.085358 
	C89.319176,326.529388 90.970787,329.016571 92.918900,331.076324 
z"/>
<path fill="#4C986C" opacity="1.000000" stroke="none" 
	d="
M138.186554,88.202255 
	C136.827423,88.866699 135.793549,89.369629 134.375458,90.059464 
	C131.742645,84.813866 129.183899,79.715866 126.413559,74.196266 
	C128.759491,72.991577 130.766693,71.918068 132.810379,70.919212 
	C139.552002,67.624252 143.071106,68.556206 145.942429,74.357773 
	C148.723541,79.977074 147.453079,83.243233 141.147659,86.664108 
	C140.276505,87.136734 139.390793,87.582535 138.186554,88.202255 
z"/>
<path fill="#49966A" opacity="1.000000" stroke="none" 
	d="
M348.750977,129.197388 
	C348.811066,129.255020 348.690857,129.139755 348.750977,129.197388 
z"/>
<path fill="#539C72" opacity="1.000000" stroke="none" 
	d="
M374.088196,297.787720 
	C370.461761,296.351746 370.362274,293.920776 371.606018,291.185547 
	C372.828644,288.496735 374.227264,285.888000 375.867004,282.607208 
	C378.308624,283.845490 380.558441,284.986511 384.190125,286.828369 
	C380.636475,290.866272 377.547607,294.376007 374.088196,297.787720 
z"/>
<path fill="#539C72" opacity="1.000000" stroke="none" 
	d="
M273.739990,67.445480 
	C272.374390,66.800529 271.335846,66.335258 269.753204,65.626236 
	C272.384674,63.235252 274.711792,61.120811 277.775940,58.336678 
	C277.775940,62.453590 277.775940,65.488838 277.775940,68.817085 
	C276.494385,68.405235 275.280701,68.015205 273.739990,67.445480 
z"/>
<path fill="#559D74" opacity="1.000000" stroke="none" 
	d="
M320.930908,354.532776 
	C320.965851,357.168274 320.965851,359.414490 320.965851,362.160278 
	C318.190857,360.336517 315.643280,358.662201 312.639954,356.688354 
	C314.996216,355.135498 316.825897,353.789734 318.815125,352.748962 
	C319.168762,352.563965 320.185455,353.646362 320.930908,354.532776 
z"/>
</svg>
