<svg width="201" height="50" viewBox="0 0 201 50" fill="none" xmlns="http://www.w3.org/2000/svg">
<path d="M65.1445 29.3444V18.5347H66.422V29.3444H65.1445Z" fill="#22366B"/>
<path d="M55.2998 29.3444V19.6812H51.5V18.5347H60.3935V19.6812H56.5773V29.3444H55.2998Z" fill="#22366B"/>
<path d="M45.4922 29.3444V18.5347H46.7697V29.3444H45.4922Z" fill="#22366B"/>
<path d="M30.1303 23.9397C30.0976 22.4001 30.638 21.0789 31.7518 19.9761C32.8764 18.8733 34.2085 18.3328 35.7481 18.3546C36.698 18.3546 37.5661 18.5621 38.3523 18.977C39.1493 19.3919 39.7772 19.9597 40.2358 20.6804L39.2858 21.4338C38.4014 20.1672 37.2276 19.5339 35.7645 19.5339C34.5416 19.5339 33.5152 19.9543 32.6853 20.795C31.8664 21.6358 31.457 22.684 31.457 23.9397C31.457 25.1953 31.8664 26.2436 32.6853 27.0843C33.5152 27.9251 34.5416 28.3455 35.7645 28.3455C37.2276 28.3455 38.4014 27.7122 39.2858 26.4456L40.2358 27.199C39.7772 27.9196 39.1493 28.4874 38.3523 28.9023C37.5661 29.3172 36.698 29.5247 35.7481 29.5247C34.2085 29.5465 32.8764 29.0061 31.7518 27.9032C30.638 26.8004 30.0976 25.4792 30.1303 23.9397Z" fill="#22366B"/>
<path d="M62.9807 34.3673C62.9734 33.8504 63.1536 33.41 63.5212 33.0461C63.8924 32.6785 64.3364 32.4983 64.8533 32.5056C65.1554 32.5056 65.4338 32.5711 65.6886 32.7021C65.9434 32.8295 66.1544 33.0097 66.3219 33.2426L65.9998 33.4937C65.705 33.097 65.3228 32.8987 64.8533 32.8987C64.4456 32.8914 64.1035 33.0315 63.8269 33.319C63.5503 33.6066 63.4156 33.9542 63.4229 34.3618C63.4156 34.7767 63.5521 35.1298 63.8324 35.4209C64.1163 35.7121 64.4638 35.8541 64.8751 35.8468C65.1335 35.8468 65.3665 35.7904 65.5739 35.6775C65.785 35.5611 65.9525 35.4027 66.0762 35.2026V34.7167H64.8478V34.3345H66.502V35.2954C66.3419 35.5793 66.1144 35.8067 65.8196 35.9778C65.5321 36.1452 65.21 36.2289 64.8533 36.2289C64.3364 36.2362 63.8924 36.0579 63.5212 35.6939C63.1536 35.3263 62.9734 34.8841 62.9807 34.3673Z" fill="#22366B"/>
<path d="M60.9224 32.5654H61.3482V36.2287H61.1954L58.9024 33.4662V36.1687H58.4766V32.5054H58.6294L60.9224 35.2733V32.5654Z" fill="#22366B"/>
<path d="M56.1914 36.1687V32.5654H56.6172V36.1687H56.1914Z" fill="#22366B"/>
<path d="M52 35.4535L52.3166 35.2187C52.586 35.63 52.9208 35.8356 53.3212 35.8356C53.5396 35.8356 53.7143 35.781 53.8453 35.6719C53.98 35.5627 54.0473 35.4171 54.0473 35.2351C54.0473 35.0822 54.0036 34.9676 53.9163 34.8912C53.8326 34.8111 53.6761 34.7146 53.4468 34.6018L53.0428 34.4107C52.7698 34.2833 52.566 34.1468 52.4313 34.0013C52.2966 33.8557 52.2293 33.6701 52.2293 33.4444C52.2293 33.1678 52.3348 32.9421 52.5459 32.7674C52.757 32.5927 53.0136 32.5054 53.3157 32.5054C53.5523 32.5054 53.7689 32.5618 53.9654 32.6746C54.1656 32.7838 54.3257 32.9312 54.4458 33.1168L54.1347 33.3516C53.9308 33.0495 53.656 32.8985 53.3103 32.8985C53.1283 32.8985 52.9754 32.9458 52.8517 33.0404C52.7316 33.135 52.6715 33.2624 52.6715 33.4226C52.6715 33.5281 52.6952 33.6155 52.7425 33.6846C52.7862 33.7501 52.8426 33.8047 52.9117 33.8484C52.9809 33.8921 53.0937 33.9521 53.2502 34.0286L53.6488 34.2196C53.9436 34.3652 54.1565 34.5126 54.2875 34.6619C54.4222 34.8111 54.4895 34.9985 54.4895 35.2242C54.4895 35.519 54.3803 35.761 54.1619 35.9503C53.9436 36.1359 53.6651 36.2287 53.3266 36.2287C53.05 36.2287 52.7953 36.1614 52.5623 36.0267C52.3294 35.8884 52.1419 35.6973 52 35.4535Z" fill="#22366B"/>
<path d="M49.9844 36.1687V32.5654H50.4102V36.1687H49.9844Z" fill="#22366B"/>
<path d="M46.8135 36.1687V32.9476H45.5469V32.5654H48.5114V32.9476H47.2393V36.1687H46.8135Z" fill="#22366B"/>
<path d="M42.7705 36.1687V32.9476H41.5039V32.5654H44.4684V32.9476H43.1963V36.1687H42.7705Z" fill="#22366B"/>
<path d="M37.9258 36.1687V32.5654H40.2351V32.9476H38.3516V34.0504H39.7929V34.4326H38.3516V35.7865H40.3006V36.1687H37.9258Z" fill="#22366B"/>
<path d="M35.921 32.5654H36.3905L34.8291 36.2287H34.6708L33.1094 32.5654H33.5789L34.7527 35.3934L35.921 32.5654Z" fill="#22366B"/>
<path d="M28.8789 36.1687V32.5654H29.949C30.5459 32.5654 31.0208 32.7329 31.3739 33.0677C31.7306 33.3989 31.9089 33.8302 31.9089 34.3616C31.9089 34.8893 31.7306 35.3225 31.3739 35.6609C31.0172 35.9994 30.5422 36.1687 29.949 36.1687H28.8789ZM29.3047 35.7865H29.9435C30.4094 35.7865 30.7788 35.6537 31.0518 35.388C31.3284 35.1223 31.4667 34.7802 31.4667 34.3616C31.4667 33.9394 31.3302 33.5991 31.0572 33.3407C30.7843 33.0786 30.413 32.9476 29.9435 32.9476H29.3047V35.7865Z" fill="#22366B"/>
<path d="M26.8827 36.1687L26.577 35.4371H24.8081L24.5024 36.1687H24.0547L25.6161 32.5054H25.7744L27.3358 36.1687H26.8827ZM26.4132 35.0549L25.6925 33.2806L24.9719 35.0549H26.4132Z" fill="#22366B"/>
<path fill-rule="evenodd" clip-rule="evenodd" d="M0 24.5676C0 10.9993 10.9993 0 24.5676 0C34.3688 0 42.8284 5.73947 46.7707 14.0379H45.2489C41.4107 6.51478 33.5899 1.36487 24.5676 1.36487C11.7531 1.36487 1.36487 11.7531 1.36487 24.5676C1.36487 37.3821 11.7531 47.7703 24.5676 47.7703C31.1065 47.7703 37.0131 45.0657 41.2314 40.7127H43.0866C38.5839 45.8733 31.9561 49.1352 24.5676 49.1352C10.9993 49.1352 0 38.1359 0 24.5676Z" fill="#22366B"/>
<path d="M107.566 22.961H107.89V29H106.936V25.274L105.235 27.506H104.911L103.201 25.265V29H102.247V22.961H102.58L105.073 26.282L107.566 22.961ZM114.811 29L114.388 28.01H111.715L111.292 29H110.275L112.894 22.961H113.218L115.837 29H114.811ZM114.046 27.191L113.056 24.734L112.057 27.191H114.046ZM123.047 29H121.958L120.266 26.705H119.177V29H118.223V23.06H120.392C120.992 23.06 121.478 23.231 121.85 23.573C122.222 23.909 122.408 24.344 122.408 24.878C122.408 25.268 122.306 25.61 122.102 25.904C121.904 26.198 121.625 26.414 121.265 26.552L123.047 29ZM119.177 23.906V25.859H120.374C120.698 25.859 120.953 25.772 121.139 25.598C121.331 25.418 121.427 25.181 121.427 24.887C121.427 24.593 121.331 24.356 121.139 24.176C120.953 23.996 120.698 23.906 120.374 23.906H119.177ZM125.34 29V23.06H126.294V29H125.34ZM127.518 25.841L130.254 29H129.075L126.321 25.841L128.814 23.06H129.984L127.518 25.841ZM132.643 29V23.06H136.549V23.915H133.597V25.436H135.82V26.264H133.597V28.145H136.657V29H132.643ZM140.602 29V23.915H138.604V23.06H143.563V23.915H141.556V29H140.602ZM145.894 29V23.06H146.848V29H145.894ZM153.728 23.06H154.682V29.099H154.358L150.74 24.977V29H149.786V22.961H150.119L153.728 27.065V23.06ZM157.264 26.03C157.246 25.184 157.546 24.458 158.164 23.852C158.788 23.246 159.532 22.949 160.396 22.961C161.44 22.961 162.259 23.375 162.853 24.203L162.16 24.77C161.716 24.146 161.125 23.834 160.387 23.834C159.763 23.834 159.25 24.041 158.848 24.455C158.452 24.869 158.254 25.391 158.254 26.021C158.254 26.657 158.458 27.188 158.866 27.614C159.28 28.034 159.805 28.244 160.441 28.244C161.233 28.244 161.824 27.944 162.214 27.344V26.705H160.387V25.859H163.168V27.533C162.898 28.013 162.517 28.394 162.025 28.676C161.533 28.958 160.99 29.099 160.396 29.099C159.526 29.111 158.782 28.817 158.164 28.217C157.552 27.611 157.252 26.882 157.264 26.03ZM174.593 26.363L174.332 26.741C174.002 27.239 173.75 27.593 173.576 27.803L174.566 29H173.441L172.982 28.442C172.478 28.88 171.92 29.099 171.308 29.099C170.762 29.099 170.312 28.949 169.958 28.649C169.604 28.349 169.427 27.968 169.427 27.506C169.427 27.182 169.52 26.888 169.706 26.624C169.892 26.36 170.222 26.045 170.696 25.679C170.312 25.193 170.12 24.74 170.12 24.32C170.12 23.912 170.249 23.585 170.507 23.339C170.771 23.087 171.116 22.961 171.542 22.961C171.95 22.961 172.283 23.078 172.541 23.312C172.805 23.546 172.937 23.849 172.937 24.221C172.937 24.755 172.598 25.283 171.92 25.805L172.991 27.092C173.033 27.038 173.219 26.765 173.549 26.273C173.663 26.099 173.759 25.955 173.837 25.841L174.593 26.363ZM171.002 24.329C171.002 24.545 171.143 24.836 171.425 25.202C171.659 25.022 171.821 24.866 171.911 24.734C172.007 24.596 172.055 24.449 172.055 24.293C172.055 24.137 172.007 24.014 171.911 23.924C171.821 23.834 171.695 23.789 171.533 23.789C171.179 23.789 171.002 23.969 171.002 24.329ZM172.415 27.758L171.227 26.318C170.891 26.582 170.669 26.786 170.561 26.93C170.453 27.074 170.399 27.236 170.399 27.416C170.399 27.656 170.486 27.854 170.66 28.01C170.84 28.166 171.071 28.244 171.353 28.244C171.719 28.244 172.073 28.082 172.415 27.758ZM180.989 29V23.06H182.852C183.818 23.06 184.598 23.333 185.192 23.879C185.786 24.425 186.083 25.139 186.083 26.021C186.083 26.891 185.783 27.605 185.183 28.163C184.589 28.721 183.812 29 182.852 29H180.989ZM181.943 28.145H182.843C183.527 28.145 184.073 27.95 184.481 27.56C184.895 27.164 185.102 26.651 185.102 26.021C185.102 25.385 184.898 24.878 184.49 24.5C184.082 24.116 183.533 23.924 182.843 23.924H181.943V28.145ZM188.66 29V23.06H192.566V23.915H189.614V25.436H191.837V26.264H189.614V28.145H192.674V29H188.66ZM199.166 23.06H200.237L197.618 29.099H197.294L194.675 23.06H195.746L197.456 27.191L199.166 23.06Z" fill="#22366B"/>
<rect x="87.5" width="1" height="49" fill="#22366B"/>
</svg>
