<?xml version="1.0" encoding="utf-8"?>
<!-- Generator: Adobe Illustrator 28.3.0, SVG Export Plug-In . SVG Version: 6.00 Build 0)  -->
<svg version="1.1" id="Шар_1" xmlns="http://www.w3.org/2000/svg" xmlns:xlink="http://www.w3.org/1999/xlink" x="0px" y="0px"
	 width="80px" height="130px" viewBox="0 0 80 130" enable-background="new 0 0 80 130" xml:space="preserve">
<g>
	<path fill="#939292" d="M64.2,45.3H15.8c-0.4,0-0.8,0.4-0.8,0.8v37.8c0,0.4,0.4,0.8,0.8,0.8h48.4c0.4,0,0.8-0.4,0.8-0.8V46.1
		C65,45.6,64.6,45.3,64.2,45.3z M60.2,78.4L49.3,67.1c-0.1-0.1-0.3-0.1-0.4,0l-7.5,6.7l-9.7-11.9c0-0.1-0.1-0.1-0.3-0.1
		c-0.1,0-0.2,0-0.3,0.1L19.7,77.2V50.1h40.5V78.4L60.2,78.4z"/>
	<path fill="#939292" d="M48.3,61.5c2.2,0,3.9-1.7,3.9-3.9s-1.7-3.9-3.9-3.9s-3.9,1.7-3.9,3.9C44.4,59.8,46.1,61.5,48.3,61.5z"/>
</g>
</svg>
