<?xml version="1.0" encoding="utf-8"?>
<!-- Generator: Adobe Illustrator 28.3.0, SVG Export Plug-In . SVG Version: 6.00 Build 0)  -->
<svg version="1.1" id="Шар_1" xmlns="http://www.w3.org/2000/svg" xmlns:xlink="http://www.w3.org/1999/xlink" x="0px" y="0px"
	 width="130px" height="70px" viewBox="0 0 130 70" style="enable-background:new 0 0 130 70;" xml:space="preserve">
<style type="text/css">
	.st0{fill:#939292;}
</style>
<g>
	<path class="st0" d="M89.2,15.3H40.8c-0.4,0-0.8,0.4-0.8,0.8v37.8c0,0.4,0.4,0.8,0.8,0.8h48.4c0.4,0,0.8-0.4,0.8-0.8V16.1
		C90,15.6,89.6,15.3,89.2,15.3z M85.2,48.4L74.3,37.1c-0.1-0.1-0.3-0.1-0.4,0l-7.5,6.7l-9.7-11.9c0-0.1-0.1-0.1-0.3-0.1
		c-0.1,0-0.2,0-0.3,0.1L44.7,47.2V20.1h40.5L85.2,48.4L85.2,48.4z"/>
	<path class="st0" d="M73.3,31.5c2.2,0,3.9-1.7,3.9-3.9s-1.7-3.9-3.9-3.9s-3.9,1.7-3.9,3.9C69.4,29.8,71.1,31.5,73.3,31.5z"/>
</g>
</svg>
