<?xml version="1.0" encoding="utf-8"?>
<!-- Generator: Adobe Illustrator 28.3.0, SVG Export Plug-In . SVG Version: 6.00 Build 0)  -->
<svg version="1.1" id="Шар_1" xmlns="http://www.w3.org/2000/svg" xmlns:xlink="http://www.w3.org/1999/xlink" x="0px" y="0px"
	 width="80px" height="130px" viewBox="0 0 80 130" enable-background="new 0 0 80 130" xml:space="preserve">
<path fill="#939292" d="M15,41v48c0,0.5,0.4,1,1,1h48c0.5,0,1-0.4,1-1V41c0-0.5-0.4-1-1-1H16C15.4,40,15,40.4,15,41z M19.1,49.2
	v-5.1h5.1v5.1H19.1z M19.1,58.4v-5.1h5.1v5.1H19.1z M19.1,67.6v-5.1h5.1v5.1H19.1z M19.1,76.8v-5.1h5.1v5.1H19.1z M19.1,85.9v-5.1
	h5.1v5.1H19.1z M28.2,63V44.1h23.5V63H28.2z M28.2,85.9V67h23.5v18.9C51.8,85.9,28.2,85.9,28.2,85.9z M55.8,49.2v-5.1h5.1v5.1H55.8z
	 M55.8,58.4v-5.1h5.1v5.1H55.8z M55.8,67.6v-5.1h5.1v5.1H55.8z M55.8,76.8v-5.1h5.1v5.1H55.8z M55.8,85.9v-5.1h5.1v5.1H55.8z"/>
</svg>
