<?xml version="1.0" encoding="utf-8"?>
<!-- Generator: Adobe Illustrator 28.3.0, SVG Export Plug-In . SVG Version: 6.00 Build 0)  -->
<svg version="1.1" id="Шар_1" xmlns="http://www.w3.org/2000/svg" xmlns:xlink="http://www.w3.org/1999/xlink" x="0px" y="0px"
	 width="130px" height="70px" viewBox="0 0 130 70" style="enable-background:new 0 0 130 70;" xml:space="preserve">
<style type="text/css">
	.st0{fill:#939292;}
</style>
<path class="st0" d="M40,11V59c0,0.5,0.4,1,1,1H89c0.5,0,1-0.4,1-1V11c0-0.5-0.4-1-1-1H41C40.4,10,40,10.4,40,11z M44.1,19.2v-5.1
	h5.1v5.1H44.1z M44.1,28.4v-5.1h5.1v5.1H44.1z M44.1,37.6v-5.1h5.1v5.1H44.1z M44.1,46.8v-5.1h5.1v5.1H44.1z M44.1,55.9v-5.1h5.1
	v5.1H44.1z M53.2,33V14.1h23.5V33H53.2z M53.2,55.9V37h23.5v18.9C76.8,55.9,53.2,55.9,53.2,55.9z M80.8,19.2v-5.1h5.1v5.1H80.8z
	 M80.8,28.4v-5.1h5.1v5.1C85.9,28.4,80.8,28.4,80.8,28.4z M80.8,37.6v-5.1h5.1v5.1H80.8z M80.8,46.8v-5.1h5.1v5.1H80.8z M80.8,55.9
	v-5.1h5.1v5.1H80.8z"/>
</svg>
