<svg width="260" height="39" viewBox="0 0 260 39" fill="currentColor" xmlns="http://www.w3.org/2000/svg">
<path d="M23.1628 8.26059V4.27826H25.3781V9.95582L35.7059 18.2164V38.4959H23.3108V22.3467L12.5391 13.9382V0L23.1628 8.26059Z"/>
<path d="M12.3951 18.2881V34.8093H21.3913V38.4957H0V26.0329L12.3951 18.2881Z"/>
<path d="M64.7692 18.8614H58.4239V38.2234H53.0641V18.8614H46.7188V14.5117H64.7774V18.8614H64.7692Z"/>
<path d="M89.5402 38.223H84.1478L74.3732 23.5936C74.0962 23.1538 73.8682 22.771 73.6808 22.4451C73.4935 22.1193 73.3469 21.8505 73.2491 21.6306H73.1839C73.2084 22.046 73.2247 22.5755 73.2328 23.219C73.241 23.8543 73.2491 24.6118 73.2491 25.4671V38.2312H68.207V14.5195H73.9578L83.3659 28.6927C83.5613 29.0104 83.7568 29.3362 83.9523 29.6621C84.1478 29.9879 84.327 30.3137 84.4899 30.6314H84.5551C84.5307 30.3544 84.5144 29.9472 84.5062 29.4014C84.4981 28.8557 84.4899 28.1796 84.4899 27.3732V14.5277H89.532V38.2393L89.5402 38.223Z"/>
<path d="M94.6289 38.2234V14.5117H103.027C107.238 14.5117 110.399 15.4729 112.5 17.3952C114.602 19.3176 115.661 22.2092 115.661 26.0702C115.661 29.9312 114.512 32.7088 112.215 34.9163C109.918 37.1237 106.855 38.2234 103.027 38.2234H94.6289ZM99.9724 18.9429V33.7922H102.62C104.933 33.7922 106.749 33.108 108.069 31.7314C109.389 30.3629 110.048 28.4894 110.048 26.1354C110.048 23.8954 109.397 22.1359 108.085 20.8571C106.782 19.5782 104.949 18.9429 102.587 18.9429H99.9724Z"/>
<path d="M142.213 29.5712C142.213 32.3488 141.504 34.5481 140.079 36.1772C138.653 37.8063 136.731 38.6127 134.295 38.6127C131.86 38.6127 129.824 37.8307 128.414 36.2587C127.005 34.6866 126.305 32.5199 126.305 29.7504V14.502H127.38V29.6282C127.38 32.0719 127.975 34.0105 129.172 35.4441C130.369 36.8696 132.08 37.5864 134.304 37.5864C136.405 37.5864 138.075 36.8859 139.297 35.4767C140.519 34.0675 141.13 32.1614 141.13 29.7504V14.502H142.205V29.563L142.213 29.5712Z"/>
<path d="M165.047 38.2234H164.135L149.448 17.436C149.334 17.2812 149.236 17.1346 149.139 16.9961C149.041 16.8576 148.919 16.6784 148.764 16.4585H148.715C148.723 16.6051 148.731 16.7355 148.731 16.8576V38.2234H147.656V14.5117H148.617L163.255 35.1932C163.369 35.348 163.475 35.5027 163.589 35.6575C163.703 35.8123 163.809 35.9915 163.923 36.187H163.988C163.98 35.91 163.972 35.6738 163.972 35.4864V14.5117H165.047V38.2234Z"/>
<path d="M171.881 38.2234H170.789V14.5117H171.881V38.2234Z"/>
<path d="M193.751 14.5117L184.71 38.2234H183.952L175.285 14.5117H176.474L183.651 34.2565C183.797 34.6556 183.919 35.0059 184.025 35.3072C184.131 35.6086 184.237 35.9345 184.351 36.2766H184.4C184.514 35.967 184.62 35.6575 184.734 35.348C184.848 35.0384 184.978 34.6719 185.133 34.2402L192.627 14.5117H193.767H193.751Z"/>
<path d="M208.329 38.2234H197.137V14.5117H207.767V15.5381H198.228V25.777H207.107V26.8196H198.228V37.1889H208.329V38.2315V38.2234Z"/>
<path d="M226.961 38.223H225.755L222.644 31.1283C222.016 29.7191 221.349 28.7335 220.648 28.1877C219.948 27.6338 219.019 27.365 217.862 27.365H214.392V38.2312H213.301V14.5195H219.369C221.389 14.5195 223.01 15.0734 224.24 16.1894C225.47 17.3053 226.081 18.8041 226.081 20.702C226.081 22.3555 225.544 23.7566 224.46 24.9051C223.377 26.0536 222.016 26.7541 220.363 27.0229V27.0718C221.08 27.2591 221.683 27.6501 222.171 28.2529C222.66 28.8557 223.141 29.6784 223.621 30.721L226.961 38.2312V38.223ZM214.392 15.5214V26.355H218.644C220.55 26.355 222.082 25.8255 223.238 24.7747C224.395 23.724 224.973 22.3881 224.973 20.7671C224.973 19.1462 224.46 17.8673 223.434 16.9306C222.407 15.9939 221.015 15.5214 219.247 15.5214H214.384H214.392Z"/>
<path d="M230.704 34.5647L231.681 34.019C232.284 35.2408 233.058 36.145 234.003 36.7233C234.948 37.3016 236.055 37.5949 237.334 37.5949C238.947 37.5949 240.275 37.1143 241.334 36.1531C242.393 35.1919 242.922 33.905 242.922 32.284C242.922 30.8097 242.531 29.6204 241.749 28.7163C240.967 27.8121 239.648 27.0546 237.799 26.4518C235.681 25.7431 234.141 24.896 233.188 23.9022C232.235 22.9085 231.746 21.6459 231.746 20.1146C231.746 18.3959 232.325 16.9623 233.481 15.8219C234.638 14.6815 236.145 14.1113 238.01 14.1113C239.436 14.1113 240.649 14.4453 241.66 15.1051C242.67 15.7649 243.435 16.6202 243.965 17.6709L242.987 18.2004C242.547 17.2636 241.896 16.5224 241.024 15.9685C240.161 15.4146 239.151 15.1458 237.994 15.1458C236.569 15.1458 235.355 15.5857 234.345 16.4572C233.335 17.337 232.83 18.5181 232.83 20.0168C232.83 21.3038 233.237 22.3709 234.06 23.2099C234.882 24.0489 236.226 24.782 238.1 25.4092C240.226 26.126 241.749 27.0138 242.653 28.0728C243.566 29.1317 244.014 30.5001 244.014 32.1863C244.014 34.0842 243.386 35.6318 242.124 36.8211C240.861 38.0185 239.257 38.6131 237.318 38.6131C235.811 38.6131 234.5 38.2628 233.384 37.5704C232.268 36.8781 231.372 35.8762 230.688 34.5647H230.704Z"/>
<path d="M260.001 38.2234H248.809V14.5117H259.439V15.5381H249.9V25.777H258.779V26.8196H249.9V37.1889H260.001V38.2315V38.2234Z"/>
</svg>
