<svg version="1.1" id="Layer_1" xmlns="http://www.w3.org/2000/svg" xmlns:xlink="http://www.w3.org/1999/xlink" x="0px" y="0px"
	 width="100%" viewBox="0 0 1172 610" enable-background="new 0 0 1172 610" xml:space="preserve" fill="currentColor">
<path fill="none" opacity="1.000000" stroke="none" 
	d="
M689.000000,611.000000 
	C459.333344,611.000000 230.166687,611.000000 1.000031,611.000000 
	C1.000021,407.666687 1.000021,204.333389 1.000010,1.000058 
	C391.666626,1.000039 782.333252,1.000039 1173.000000,1.000019 
	C1173.000000,204.333267 1173.000000,407.666534 1173.000000,610.999878 
	C1011.833313,611.000000 850.666687,611.000000 689.000000,611.000000 
M140.156693,97.499954 
	C140.156693,114.499367 140.239899,131.499542 140.084930,148.497528 
	C140.054749,151.805786 141.000626,153.936142 143.670013,156.009247 
	C180.492523,184.606369 217.194382,213.358902 254.022385,241.948929 
	C256.820526,244.121155 257.874298,246.307877 257.867188,249.830643 
	C257.756470,304.828735 257.789703,359.827118 257.789703,414.825439 
	C257.789703,416.762329 257.789703,418.699219 257.789703,420.701172 
	C303.077454,420.701172 347.814728,420.701172 392.910522,420.701172 
	C392.910522,419.472748 392.910522,418.500183 392.910522,417.527618 
	C392.910522,346.196472 392.941071,274.865265 392.764801,203.534561 
	C392.759430,201.367752 391.121307,198.555222 389.362518,197.138458 
	C354.096191,168.729584 318.721680,140.454605 283.281219,112.263023 
	C280.932861,110.395012 280.009613,108.550606 280.057495,105.599434 
	C280.222412,95.435760 280.120911,85.267754 280.120911,75.101402 
	C280.120911,66.157562 280.120911,57.213722 280.120911,48.201523 
	C271.875488,48.201523 264.144562,48.201523 255.857956,48.201523 
	C255.857956,62.343800 255.857956,76.196007 255.857956,91.003883 
	C253.496994,89.184113 251.949890,88.000031 250.411560,86.804703 
	C216.233063,60.247360 182.068329,33.672268 147.845490,7.172201 
	C145.833679,5.614370 143.354874,4.659622 140.156708,2.912552 
	C140.156708,35.202663 140.156708,65.851303 140.156693,97.499954 
M138.671539,374.407898 
	C138.671539,316.730286 138.671539,259.052673 138.671539,200.966339 
	C137.382507,201.545532 136.899002,201.699081 136.482010,201.959213 
	C93.129799,229.003708 49.761486,256.022675 6.516946,283.238312 
	C4.888582,284.263123 3.611873,287.197021 3.603796,289.246918 
	C3.437002,331.576965 3.476157,373.907806 3.487504,416.238495 
	C3.487897,417.704773 3.622583,419.170959 3.692428,420.591492 
	C81.526604,420.591492 159.065155,420.591492 236.417938,420.591492 
	C236.417938,407.139343 236.417938,394.081543 236.417938,380.639160 
	C203.744781,380.639160 171.468369,380.639160 138.671494,380.639160 
	C138.671494,378.623901 138.671494,377.001617 138.671539,374.407898 
M198.999786,581.500122 
	C203.996338,588.969971 208.954453,596.466125 214.030258,603.881714 
	C214.805542,605.014404 216.107605,606.560120 217.195496,606.584106 
	C226.776825,606.796326 236.364838,606.707153 245.913788,606.707153 
	C245.913788,561.576477 245.913788,517.181091 245.913788,472.642303 
	C236.478516,472.642303 227.384262,472.642303 217.876450,472.642303 
	C217.876450,502.562073 217.876450,532.229736 217.876450,562.742981 
	C216.942245,561.511841 216.537827,561.038696 216.198257,560.522827 
	C197.628189,532.312012 179.079330,504.087158 160.451538,475.914490 
	C159.525116,474.513336 157.943771,472.592407 156.622620,472.556427 
	C146.375488,472.277283 136.117340,472.402344 125.812286,472.402344 
	C125.812286,517.522583 125.812286,561.926392 125.812286,606.375793 
	C135.365112,606.375793 144.594360,606.375793 154.193649,606.375793 
	C154.193649,575.511536 154.193649,544.998535 154.193649,514.324707 
	C169.126312,536.707886 183.866119,558.801941 198.999786,581.500122 
M275.334747,473.069977 
	C275.235504,473.889496 275.049713,474.708984 275.049438,475.528534 
	C275.035004,517.990845 275.034302,560.453186 275.046661,602.915527 
	C275.046967,604.032104 275.206940,605.148743 275.399384,607.661499 
	C297.862976,606.671875 320.160522,606.579529 342.250946,604.393982 
	C356.252686,603.008545 368.185883,595.362000 377.737396,584.701538 
	C392.644714,568.063416 395.988251,548.048950 393.517212,526.846191 
	C389.833984,495.241913 373.126099,477.439392 341.412170,474.099518 
	C319.823029,471.825897 297.876099,472.949829 275.334747,473.069977 
M106.099472,488.460205 
	C106.099472,483.205780 106.099472,477.951324 106.099472,472.730988 
	C71.673668,472.730988 37.942108,472.730988 4.284582,472.730988 
	C4.284582,480.986481 4.284582,488.886841 4.284582,497.168182 
	C16.245186,497.168182 27.840309,497.168182 39.938484,497.168182 
	C39.938484,533.784302 39.938484,570.011597 39.938484,606.463257 
	C50.193558,606.463257 59.935452,606.463257 70.187576,606.463257 
	C70.187576,569.966003 70.187576,533.733765 70.187576,496.942810 
	C82.405502,496.942810 94.125923,496.942810 106.099472,496.942810 
	C106.099472,494.071594 106.099472,491.757538 106.099472,488.460205 
M541.864868,558.500000 
	C541.864868,534.129761 541.864868,509.759552 541.864868,484.073700 
	C543.436157,486.069672 544.156311,486.904510 544.789734,487.800598 
	C571.875366,526.118225 598.969238,564.430054 625.998413,602.787537 
	C627.935913,605.537109 629.710510,607.953613 633.717407,606.264893 
	C633.717407,561.778931 633.717407,517.242371 633.717407,472.705017 
	C631.645081,472.705017 629.908325,472.705017 627.667480,472.705017 
	C627.667480,513.212463 627.667480,553.374451 627.667480,594.540161 
	C626.321838,592.733826 625.621216,591.834106 624.963257,590.904236 
	C598.052368,552.868958 571.133850,514.839111 544.259949,476.777710 
	C542.175232,473.825195 540.307617,470.862549 535.795349,472.989777 
	C535.795349,517.373535 535.795349,561.787292 535.795349,606.343201 
	C537.906128,606.343201 539.751526,606.343201 541.864868,606.343201 
	C541.864868,590.456055 541.864868,574.978027 541.864868,558.500000 
M913.294067,602.074524 
	C913.294067,583.267090 913.294067,564.459717 913.294067,545.128479 
	C919.108887,545.128479 924.584961,545.411194 930.022339,545.072754 
	C943.586182,544.228455 952.584595,550.425110 957.968384,562.520691 
	C963.850647,575.736145 969.901978,588.881958 975.459595,602.232910 
	C977.267090,606.575134 979.665649,607.613037 984.054199,606.243103 
	C983.520752,604.773560 983.104736,603.369568 982.514771,602.042908 
	C977.312256,590.343689 972.140625,578.630066 966.834717,566.977661 
	C962.659607,557.808472 958.804199,548.350342 948.546997,543.390808 
	C951.975952,542.169373 954.844055,541.297424 957.593872,540.143433 
	C973.466675,533.482178 981.568237,518.568848 979.009766,500.864471 
	C976.775269,485.402313 964.661255,474.328674 947.801208,472.901703 
	C940.351440,472.271179 932.829346,472.455139 925.338928,472.359314 
	C919.392273,472.283234 913.443909,472.343994 907.313904,472.343994 
	C907.313904,517.394287 907.313904,561.796692 907.313904,606.767822 
	C910.169983,606.365479 913.873901,608.477417 913.294067,602.074524 
M429.044373,588.315796 
	C422.970703,579.267090 420.924225,569.134827 420.931396,558.426453 
	C420.949402,531.601685 420.935547,504.776947 420.934479,477.952209 
	C420.934418,476.193359 420.934479,474.434540 420.934479,472.311157 
	C418.465790,472.421021 416.732849,472.498138 414.677490,472.589600 
	C414.677490,474.032410 414.677429,475.007690 414.677490,475.982971 
	C414.678986,503.807404 414.614380,531.632141 414.745148,559.455933 
	C414.767700,564.258423 415.310516,569.111328 416.143066,573.847778 
	C419.235046,591.438293 431.911682,604.613403 448.503143,607.807434 
	C469.845795,611.916077 487.250122,605.198853 497.227692,588.882446 
	C503.066254,579.334595 504.770142,568.704773 504.794983,557.743347 
	C504.856232,530.752136 504.818787,503.760681 504.809753,476.769318 
	C504.809326,475.477722 504.700806,474.186188 504.630798,472.632080 
	C502.577820,472.632080 500.846161,472.632080 498.657440,472.632080 
	C498.657440,474.661346 498.657440,476.463867 498.657440,478.266388 
	C498.657410,504.091461 498.686981,529.916565 498.627411,555.741516 
	C498.617798,559.897888 498.391754,564.072388 497.955505,568.205811 
	C496.250122,584.363098 486.263428,597.141724 472.271545,601.280334 
	C455.756958,606.165161 439.868866,601.582581 429.044373,588.315796 
M821.875854,587.495789 
	C821.875854,572.422058 821.875854,557.348389 821.875854,541.823242 
	C839.077271,541.823242 855.491394,541.823242 872.126343,541.823242 
	C872.025208,539.734802 871.947144,538.122131 871.846863,536.051270 
	C855.173340,536.051270 838.761841,536.051270 822.233887,536.051270 
	C822.233887,516.545959 822.233887,497.515961 822.233887,477.935181 
	C840.308838,477.935181 858.031921,477.935181 875.991638,477.935181 
	C875.798462,475.783478 875.657288,474.211456 875.523621,472.722290 
	C855.362488,472.722290 835.640076,472.722290 815.843872,472.722290 
	C815.843872,517.520569 815.843872,561.942017 815.843872,606.406311 
	C837.012817,606.406311 857.894531,606.406311 878.874023,606.406311 
	C878.874023,604.416565 878.874023,602.786560 878.874023,600.771606 
	C859.930420,600.771606 841.157532,600.771606 821.875854,600.771606 
	C821.875854,596.434265 821.875854,592.463806 821.875854,587.495789 
M1046.534546,470.113922 
	C1028.807007,470.629181 1015.715515,480.438049 1012.216431,495.827148 
	C1008.394470,512.636719 1015.261963,525.988953 1032.181274,534.456299 
	C1035.149292,535.941711 1038.259033,537.148865 1041.323730,538.435730 
	C1047.296021,540.943542 1053.572388,542.891113 1059.211182,545.999023 
	C1079.182251,557.006531 1080.349731,585.827637 1061.532349,597.978394 
	C1046.735840,607.532776 1024.807983,603.262756 1014.762695,588.854614 
	C1013.455627,586.979919 1012.239685,585.041809 1010.890137,582.994385 
	C1009.757996,583.556458 1008.838257,583.915649 1008.028015,584.443054 
	C1007.234619,584.959412 1006.552795,585.647095 1005.734192,586.333130 
	C1012.821045,599.515442 1023.476318,606.873352 1038.141357,608.759888 
	C1065.249268,612.247070 1085.715820,590.296753 1080.201050,563.585449 
	C1077.454834,550.285217 1068.437134,542.819458 1056.781738,537.712585 
	C1048.418335,534.048157 1039.650635,531.154663 1031.669800,526.804565 
	C1019.572876,520.210938 1015.362549,509.051178 1018.747192,495.816467 
	C1021.584106,484.723938 1032.250000,476.610382 1044.696289,476.075348 
	C1058.281494,475.491302 1068.446777,481.139923 1075.229126,493.349426 
	C1077.116333,492.267151 1078.746582,491.332306 1080.332520,490.422882 
	C1074.484741,477.756500 1062.726929,470.619659 1046.534546,470.113922 
M764.233215,556.889343 
	C774.897705,528.979309 785.562195,501.069244 796.263123,473.063904 
	C791.690735,471.259430 789.585266,472.763885 788.067810,476.813690 
	C776.512939,507.651947 764.786438,538.425903 753.120239,569.222473 
	C749.984619,577.499878 746.872498,585.786255 743.430725,594.914001 
	C742.511292,592.788696 741.930176,591.616821 741.486633,590.395142 
	C727.811157,552.729370 714.080383,515.083374 700.576538,477.356140 
	C698.978516,472.891449 696.969482,471.024811 692.292480,472.988922 
	C692.370300,473.464203 692.373840,473.960663 692.534424,474.399689 
	C708.243530,517.346619 723.946777,560.295654 739.762939,603.203064 
	C740.280090,604.606018 741.954895,605.582153 743.090027,606.757385 
	C744.248169,605.612000 745.939880,604.675476 746.482605,603.289185 
	C752.424316,588.110168 758.186707,572.861023 764.233215,556.889343 
M1107.924561,562.500000 
	C1107.924561,577.094299 1107.924561,591.688599 1107.924561,606.516846 
	C1129.268433,606.516846 1150.006470,606.516846 1171.046143,606.516846 
	C1171.046143,604.639343 1171.046143,602.894958 1171.046143,600.680176 
	C1152.191895,600.680176 1133.440552,600.680176 1114.481201,600.680176 
	C1114.481201,580.984802 1114.481201,561.757751 1114.481201,542.076294 
	C1131.163940,542.076294 1147.568237,542.076294 1164.140625,542.076294 
	C1164.140625,539.878845 1164.140625,538.138794 1164.140625,535.921448 
	C1147.447266,535.921448 1131.047852,535.921448 1114.603760,535.921448 
	C1114.603760,516.422119 1114.603760,497.404785 1114.603760,478.048218 
	C1132.614014,478.048218 1150.217773,478.048218 1167.994019,478.048218 
	C1167.994019,476.099945 1167.994019,474.496368 1167.994019,472.731384 
	C1147.939941,472.731384 1128.076416,472.731384 1107.924561,472.731384 
	C1107.924561,502.572540 1107.924561,532.036255 1107.924561,562.500000 
M666.352783,583.499878 
	C666.352783,591.112000 666.352783,598.724182 666.352783,606.442078 
	C668.814087,606.442078 670.691223,606.442078 672.570984,606.442078 
	C672.570984,561.592651 672.570984,517.102539 672.570984,472.566559 
	C670.448792,472.566559 668.684998,472.566559 666.352905,472.566559 
	C666.352905,509.385132 666.352905,545.942505 666.352783,583.499878 
z"/>
<path opacity="1.000000" stroke="none" 
	d="
M140.156708,96.999954 
	C140.156708,65.851303 140.156708,35.202663 140.156708,2.912552 
	C143.354874,4.659622 145.833679,5.614370 147.845490,7.172201 
	C182.068329,33.672268 216.233063,60.247360 250.411560,86.804703 
	C251.949890,88.000031 253.496994,89.184113 255.857956,91.003883 
	C255.857956,76.196007 255.857956,62.343800 255.857956,48.201523 
	C264.144562,48.201523 271.875488,48.201523 280.120911,48.201523 
	C280.120911,57.213722 280.120911,66.157562 280.120911,75.101402 
	C280.120911,85.267754 280.222412,95.435760 280.057495,105.599434 
	C280.009613,108.550606 280.932861,110.395012 283.281219,112.263023 
	C318.721680,140.454605 354.096191,168.729584 389.362518,197.138458 
	C391.121307,198.555222 392.759430,201.367752 392.764801,203.534561 
	C392.941071,274.865265 392.910522,346.196472 392.910522,417.527618 
	C392.910522,418.500183 392.910522,419.472748 392.910522,420.701172 
	C347.814728,420.701172 303.077454,420.701172 257.789703,420.701172 
	C257.789703,418.699219 257.789703,416.762329 257.789703,414.825439 
	C257.789703,359.827118 257.756470,304.828735 257.867188,249.830643 
	C257.874298,246.307877 256.820526,244.121155 254.022385,241.948929 
	C217.194382,213.358902 180.492523,184.606369 143.670013,156.009247 
	C141.000626,153.936142 140.054749,151.805786 140.084930,148.497528 
	C140.239899,131.499542 140.156693,114.499367 140.156708,96.999954 
z"/>
<path opacity="1.000000" stroke="none" 
	d="
M138.671509,374.893616 
	C138.671494,377.001617 138.671494,378.623901 138.671494,380.639160 
	C171.468369,380.639160 203.744781,380.639160 236.417938,380.639160 
	C236.417938,394.081543 236.417938,407.139343 236.417938,420.591492 
	C159.065155,420.591492 81.526604,420.591492 3.692428,420.591492 
	C3.622583,419.170959 3.487897,417.704773 3.487504,416.238495 
	C3.476157,373.907806 3.437002,331.576965 3.603796,289.246918 
	C3.611873,287.197021 4.888582,284.263123 6.516946,283.238312 
	C49.761486,256.022675 93.129799,229.003708 136.482010,201.959213 
	C136.899002,201.699081 137.382507,201.545532 138.671539,200.966339 
	C138.671539,259.052673 138.671539,316.730286 138.671509,374.893616 
z"/>
<path opacity="1.000000" stroke="none" 
	d="
M198.802856,581.198059 
	C183.866119,558.801941 169.126312,536.707886 154.193649,514.324707 
	C154.193649,544.998535 154.193649,575.511536 154.193649,606.375793 
	C144.594360,606.375793 135.365112,606.375793 125.812286,606.375793 
	C125.812286,561.926392 125.812286,517.522583 125.812286,472.402344 
	C136.117340,472.402344 146.375488,472.277283 156.622620,472.556427 
	C157.943771,472.592407 159.525116,474.513336 160.451538,475.914490 
	C179.079330,504.087158 197.628189,532.312012 216.198257,560.522827 
	C216.537827,561.038696 216.942245,561.511841 217.876450,562.742981 
	C217.876450,532.229736 217.876450,502.562073 217.876450,472.642303 
	C227.384262,472.642303 236.478516,472.642303 245.913788,472.642303 
	C245.913788,517.181091 245.913788,561.576477 245.913788,606.707153 
	C236.364838,606.707153 226.776825,606.796326 217.195496,606.584106 
	C216.107605,606.560120 214.805542,605.014404 214.030258,603.881714 
	C208.954453,596.466125 203.996338,588.969971 198.802856,581.198059 
z"/>
<path opacity="1.000000" stroke="none" 
	d="
M275.711945,472.812256 
	C297.876099,472.949829 319.823029,471.825897 341.412170,474.099518 
	C373.126099,477.439392 389.833984,495.241913 393.517212,526.846191 
	C395.988251,548.048950 392.644714,568.063416 377.737396,584.701538 
	C368.185883,595.362000 356.252686,603.008545 342.250946,604.393982 
	C320.160522,606.579529 297.862976,606.671875 275.399384,607.661499 
	C275.206940,605.148743 275.046967,604.032104 275.046661,602.915527 
	C275.034302,560.453186 275.035004,517.990845 275.049438,475.528534 
	C275.049713,474.708984 275.235504,473.889496 275.711945,472.812256 
M338.716553,500.632111 
	C327.986206,496.449646 316.837372,497.862976 305.521545,497.614960 
	C305.521545,525.730286 305.521545,553.292480 305.521545,581.182922 
	C312.357574,581.182922 318.985596,581.522583 325.567810,581.117310 
	C343.302704,580.025269 356.810516,569.409729 360.477264,552.160950 
	C362.197144,544.070618 362.096161,535.205994 360.896484,526.972534 
	C359.071503,514.447144 351.351105,505.686096 338.716553,500.632111 
z"/>
<path opacity="1.000000" stroke="none" 
	d="
M106.099472,488.951843 
	C106.099472,491.757538 106.099472,494.071594 106.099472,496.942810 
	C94.125923,496.942810 82.405502,496.942810 70.187576,496.942810 
	C70.187576,533.733765 70.187576,569.966003 70.187576,606.463257 
	C59.935452,606.463257 50.193558,606.463257 39.938484,606.463257 
	C39.938484,570.011597 39.938484,533.784302 39.938484,497.168182 
	C27.840309,497.168182 16.245186,497.168182 4.284582,497.168182 
	C4.284582,488.886841 4.284582,480.986481 4.284582,472.730988 
	C37.942108,472.730988 71.673668,472.730988 106.099472,472.730988 
	C106.099472,477.951324 106.099472,483.205780 106.099472,488.951843 
z"/>
<path opacity="1.000000" stroke="none" 
	d="
M541.864868,559.000000 
	C541.864868,574.978027 541.864868,590.456055 541.864868,606.343201 
	C539.751526,606.343201 537.906128,606.343201 535.795349,606.343201 
	C535.795349,561.787292 535.795349,517.373535 535.795349,472.989777 
	C540.307617,470.862549 542.175232,473.825195 544.259949,476.777710 
	C571.133850,514.839111 598.052368,552.868958 624.963257,590.904236 
	C625.621216,591.834106 626.321838,592.733826 627.667480,594.540161 
	C627.667480,553.374451 627.667480,513.212463 627.667480,472.705017 
	C629.908325,472.705017 631.645081,472.705017 633.717407,472.705017 
	C633.717407,517.242371 633.717407,561.778931 633.717407,606.264893 
	C629.710510,607.953613 627.935913,605.537109 625.998413,602.787537 
	C598.969238,564.430054 571.875366,526.118225 544.789734,487.800598 
	C544.156311,486.904510 543.436157,486.069672 541.864868,484.073700 
	C541.864868,509.759552 541.864868,534.129761 541.864868,559.000000 
z"/>
<path opacity="1.000000" stroke="none" 
	d="
M913.293945,602.524170 
	C913.873901,608.477417 910.169983,606.365479 907.313904,606.767822 
	C907.313904,561.796692 907.313904,517.394287 907.313904,472.343994 
	C913.443909,472.343994 919.392273,472.283234 925.338928,472.359314 
	C932.829346,472.455139 940.351440,472.271179 947.801208,472.901703 
	C964.661255,474.328674 976.775269,485.402313 979.009766,500.864471 
	C981.568237,518.568848 973.466675,533.482178 957.593872,540.143433 
	C954.844055,541.297424 951.975952,542.169373 948.546997,543.390808 
	C958.804199,548.350342 962.659607,557.808472 966.834717,566.977661 
	C972.140625,578.630066 977.312256,590.343689 982.514771,602.042908 
	C983.104736,603.369568 983.520752,604.773560 984.054199,606.243103 
	C979.665649,607.613037 977.267090,606.575134 975.459595,602.232910 
	C969.901978,588.881958 963.850647,575.736145 957.968384,562.520691 
	C952.584595,550.425110 943.586182,544.228455 930.022339,545.072754 
	C924.584961,545.411194 919.108887,545.128479 913.294067,545.128479 
	C913.294067,564.459717 913.294067,583.267090 913.293945,602.524170 
M913.293152,479.957184 
	C913.293152,499.550690 913.293152,519.144226 913.293152,540.098022 
	C925.993469,539.259460 938.406555,539.685303 950.274292,537.345276 
	C965.583435,534.326660 973.980164,520.737732 972.969910,504.335480 
	C972.120544,490.545502 962.503113,480.419739 946.969421,478.801331 
	C936.270935,477.686646 925.387268,478.341461 914.585938,478.253906 
	C914.201477,478.250763 913.812744,478.765167 913.293152,479.957184 
z"/>
<path opacity="1.000000" stroke="none" 
	d="
M429.242249,588.621216 
	C439.868866,601.582581 455.756958,606.165161 472.271545,601.280334 
	C486.263428,597.141724 496.250122,584.363098 497.955505,568.205811 
	C498.391754,564.072388 498.617798,559.897888 498.627411,555.741516 
	C498.686981,529.916565 498.657410,504.091461 498.657440,478.266388 
	C498.657440,476.463867 498.657440,474.661346 498.657440,472.632080 
	C500.846161,472.632080 502.577820,472.632080 504.630798,472.632080 
	C504.700806,474.186188 504.809326,475.477722 504.809753,476.769318 
	C504.818787,503.760681 504.856232,530.752136 504.794983,557.743347 
	C504.770142,568.704773 503.066254,579.334595 497.227692,588.882446 
	C487.250122,605.198853 469.845795,611.916077 448.503143,607.807434 
	C431.911682,604.613403 419.235046,591.438293 416.143066,573.847778 
	C415.310516,569.111328 414.767700,564.258423 414.745148,559.455933 
	C414.614380,531.632141 414.678986,503.807404 414.677490,475.982971 
	C414.677429,475.007690 414.677490,474.032410 414.677490,472.589600 
	C416.732849,472.498138 418.465790,472.421021 420.934479,472.311157 
	C420.934479,474.434540 420.934418,476.193359 420.934479,477.952209 
	C420.935547,504.776947 420.949402,531.601685 420.931396,558.426453 
	C420.924225,569.134827 422.970703,579.267090 429.242249,588.621216 
z"/>
<path opacity="1.000000" stroke="none" 
	d="
M821.875854,587.994568 
	C821.875854,592.463806 821.875854,596.434265 821.875854,600.771606 
	C841.157532,600.771606 859.930420,600.771606 878.874023,600.771606 
	C878.874023,602.786560 878.874023,604.416565 878.874023,606.406311 
	C857.894531,606.406311 837.012817,606.406311 815.843872,606.406311 
	C815.843872,561.942017 815.843872,517.520569 815.843872,472.722290 
	C835.640076,472.722290 855.362488,472.722290 875.523621,472.722290 
	C875.657288,474.211456 875.798462,475.783478 875.991638,477.935181 
	C858.031921,477.935181 840.308838,477.935181 822.233887,477.935181 
	C822.233887,497.515961 822.233887,516.545959 822.233887,536.051270 
	C838.761841,536.051270 855.173340,536.051270 871.846863,536.051270 
	C871.947144,538.122131 872.025208,539.734802 872.126343,541.823242 
	C855.491394,541.823242 839.077271,541.823242 821.875854,541.823242 
	C821.875854,557.348389 821.875854,572.422058 821.875854,587.994568 
z"/>
<path opacity="1.000000" stroke="none" 
	d="
M1046.997192,470.114655 
	C1062.726929,470.619659 1074.484741,477.756500 1080.332520,490.422882 
	C1078.746582,491.332306 1077.116333,492.267151 1075.229126,493.349426 
	C1068.446777,481.139923 1058.281494,475.491302 1044.696289,476.075348 
	C1032.250000,476.610382 1021.584106,484.723938 1018.747192,495.816467 
	C1015.362549,509.051178 1019.572876,520.210938 1031.669800,526.804565 
	C1039.650635,531.154663 1048.418335,534.048157 1056.781738,537.712585 
	C1068.437134,542.819458 1077.454834,550.285217 1080.201050,563.585449 
	C1085.715820,590.296753 1065.249268,612.247070 1038.141357,608.759888 
	C1023.476318,606.873352 1012.821045,599.515442 1005.734192,586.333130 
	C1006.552795,585.647095 1007.234619,584.959412 1008.028015,584.443054 
	C1008.838257,583.915649 1009.757996,583.556458 1010.890137,582.994385 
	C1012.239685,585.041809 1013.455627,586.979919 1014.762695,588.854614 
	C1024.807983,603.262756 1046.735840,607.532776 1061.532349,597.978394 
	C1080.349731,585.827637 1079.182251,557.006531 1059.211182,545.999023 
	C1053.572388,542.891113 1047.296021,540.943542 1041.323730,538.435730 
	C1038.259033,537.148865 1035.149292,535.941711 1032.181274,534.456299 
	C1015.261963,525.988953 1008.394470,512.636719 1012.216431,495.827148 
	C1015.715515,480.438049 1028.807007,470.629181 1046.997192,470.114655 
z"/>
<path opacity="1.000000" stroke="none" 
	d="
M764.115540,557.260132 
	C758.186707,572.861023 752.424316,588.110168 746.482605,603.289185 
	C745.939880,604.675476 744.248169,605.612000 743.089966,606.757324 
	C741.954895,605.582153 740.280090,604.606018 739.762939,603.203064 
	C723.946777,560.295654 708.243530,517.346619 692.534424,474.399689 
	C692.373840,473.960663 692.370300,473.464203 692.292480,472.988922 
	C696.969482,471.024811 698.978516,472.891449 700.576538,477.356140 
	C714.080383,515.083374 727.811157,552.729370 741.486633,590.395142 
	C741.930176,591.616821 742.511292,592.788696 743.430725,594.914001 
	C746.872498,585.786255 749.984619,577.499878 753.120239,569.222473 
	C764.786438,538.425903 776.512939,507.651947 788.067810,476.813690 
	C789.585266,472.763885 791.690735,471.259430 796.263123,473.063904 
	C785.562195,501.069244 774.897705,528.979309 764.115540,557.260132 
z"/>
<path opacity="1.000000" stroke="none" 
	d="
M1107.924561,562.000000 
	C1107.924561,532.036255 1107.924561,502.572540 1107.924561,472.731384 
	C1128.076416,472.731384 1147.939941,472.731384 1167.994019,472.731384 
	C1167.994019,474.496368 1167.994019,476.099945 1167.994019,478.048218 
	C1150.217773,478.048218 1132.614014,478.048218 1114.603760,478.048218 
	C1114.603760,497.404785 1114.603760,516.422119 1114.603760,535.921448 
	C1131.047852,535.921448 1147.447266,535.921448 1164.140625,535.921448 
	C1164.140625,538.138794 1164.140625,539.878845 1164.140625,542.076294 
	C1147.568237,542.076294 1131.163940,542.076294 1114.481201,542.076294 
	C1114.481201,561.757751 1114.481201,580.984802 1114.481201,600.680176 
	C1133.440552,600.680176 1152.191895,600.680176 1171.046143,600.680176 
	C1171.046143,602.894958 1171.046143,604.639343 1171.046143,606.516846 
	C1150.006470,606.516846 1129.268433,606.516846 1107.924561,606.516846 
	C1107.924561,591.688599 1107.924561,577.094299 1107.924561,562.000000 
z"/>
<path opacity="1.000000" stroke="none" 
	d="
M666.352844,582.999878 
	C666.352905,545.942505 666.352905,509.385132 666.352905,472.566559 
	C668.684998,472.566559 670.448792,472.566559 672.570984,472.566559 
	C672.570984,517.102539 672.570984,561.592651 672.570984,606.442078 
	C670.691223,606.442078 668.814087,606.442078 666.352783,606.442078 
	C666.352783,598.724182 666.352783,591.112000 666.352844,582.999878 
z"/>
</svg>
