<?xml version="1.0" encoding="utf-8"?>
<!-- Generator: Adobe Illustrator 28.0.0, SVG Export Plug-In . SVG Version: 6.00 Build 0)  -->
<svg version="1.1" id="logo" xmlns="http://www.w3.org/2000/svg" xmlns:xlink="http://www.w3.org/1999/xlink" x="0px" y="0px"
	 viewBox="0 0 50 37" enable-background="new 0 0 50 37" xml:space="preserve">
<path fill="#0033BB" d="M35.389,14.49h0.783v8.134h-0.783V14.49z M49.117,14.49H49.9v8.134h-0.783V14.49z M45.628,14.49H39.68v0.731
	h2.583v7.403h0.783v-7.403h2.582L45.628,14.49z M31.398,21.372c-0.53,0.3-1.147,0.473-1.806,0.473c-1.959,0-3.553-1.523-3.553-3.395
	s1.594-3.395,3.553-3.395c0.542-0.001,1.078,0.118,1.569,0.35l0.361-0.692c-0.602-0.29-1.263-0.439-1.931-0.438
	c-2.392,0-4.332,1.869-4.332,4.174s1.939,4.174,4.332,4.174c0.781,0,1.512-0.2,2.145-0.548
	C31.736,22.075,31.398,21.372,31.398,21.372z"/>
<path fill="#0033BB" d="M30.807,30.851c-3.326,3.301-7.749,5.119-12.453,5.119c-4.705,0-9.127-1.818-12.453-5.119
	C2.576,27.552,0.745,23.165,0.745,18.5S2.576,9.448,5.9,6.149C9.226,2.848,13.649,1.03,18.353,1.03
	c4.705,0,9.127,1.818,12.453,5.119c1.278,1.265,2.354,2.721,3.189,4.314h0.83C31.714,4.216,25.332,0.272,18.353,0.285
	C8.217,0.285,0,8.44,0,18.5s8.217,18.215,18.353,18.215c5.73,0.011,11.136-2.653,14.619-7.203h-0.948
	C31.644,29.976,31.238,30.423,30.807,30.851z"/>
<path fill="#0033BB" d="M18.634,27.617h0.371l0.362-0.874h1.719l0.366,0.874h0.376L20.4,24.291h-0.329
	C20.071,24.291,18.634,27.617,18.634,27.617z M20.959,26.433h-1.465l0.733-1.766L20.959,26.433z M24.75,24.702
	c-0.337-0.266-0.754-0.411-1.184-0.411h-1.104v3.325h1.104c0.213,0,0.421-0.035,0.625-0.106c0.203-0.07,0.39-0.172,0.559-0.305
	s0.305-0.308,0.409-0.526c0.103-0.218,0.155-0.459,0.155-0.726s-0.052-0.508-0.155-0.726C25.065,25.023,24.925,24.843,24.75,24.702z
	 M24.862,26.456c-0.063,0.16-0.155,0.308-0.272,0.434c-0.119,0.13-0.275,0.233-0.467,0.31c-0.208,0.08-0.429,0.119-0.651,0.115H22.8
	v-2.724h0.672c0.241,0,0.458,0.038,0.651,0.115s0.348,0.18,0.467,0.31C24.948,25.405,25.054,25.963,24.862,26.456z M27.183,27.18
	l-1.081-2.889h-0.366l1.268,3.326h0.357l1.273-3.326h-0.362l-1.08,2.889H27.183z M31.297,24.592v-0.301h-2.062v3.326h2.118v-0.301
	h-1.78v-1.282h1.611v-0.296h-1.611v-1.146H31.297z M34.038,25.766c0.159-0.153,0.245-0.366,0.237-0.587
	c0-0.307-0.102-0.531-0.305-0.674s-0.481-0.214-0.831-0.214h-0.977v3.325H32.5v-1.555h0.564l0.921,1.555h0.413l-0.972-1.583
	C33.675,26.005,33.879,25.916,34.038,25.766z M32.499,25.771v-1.188H33.1c0.557,0,0.836,0.199,0.836,0.597
	c0.009,0.176-0.075,0.344-0.221,0.442c-0.147,0.1-0.357,0.15-0.629,0.15L32.499,25.771L32.499,25.771z M34.735,24.592h1.113v3.025
	h0.338v-3.025H37.3v-0.301h-2.565V24.592z M37.943,24.291h0.338v3.325h-0.338V24.291z M41.125,26.287
	c-0.034-0.062-0.08-0.116-0.136-0.16c-0.049-0.041-0.099-0.081-0.15-0.12c-0.06-0.04-0.125-0.072-0.193-0.096
	c-0.129-0.055-0.262-0.102-0.397-0.141c-0.075-0.024-0.149-0.049-0.223-0.075c-0.064-0.024-0.127-0.053-0.188-0.085
	c-0.063-0.029-0.121-0.069-0.172-0.117c-0.09-0.105-0.14-0.238-0.141-0.376c0-0.197,0.072-0.351,0.216-0.46
	c0.141-0.109,0.315-0.167,0.493-0.164c0.301,0,0.529,0.111,0.686,0.333l0.268-0.216c-0.099-0.127-0.228-0.226-0.376-0.289
	c-0.177-0.079-0.37-0.118-0.564-0.115c-0.175,0-0.341,0.031-0.495,0.092c-0.158,0.064-0.296,0.169-0.399,0.305
	c-0.113,0.149-0.172,0.332-0.167,0.519c0,0.144,0.024,0.27,0.073,0.378c0.048,0.108,0.12,0.197,0.214,0.265
	c0.094,0.069,0.185,0.124,0.275,0.164c0.089,0.041,0.2,0.081,0.331,0.122c0.113,0.035,0.196,0.061,0.251,0.08
	s0.125,0.049,0.211,0.092c0.086,0.042,0.15,0.085,0.19,0.129c0.045,0.051,0.083,0.109,0.11,0.172
	c0.033,0.07,0.049,0.151,0.049,0.242c0.008,0.185-0.077,0.361-0.225,0.472c-0.147,0.113-0.327,0.174-0.512,0.172
	c-0.156,0.003-0.31-0.037-0.446-0.115c-0.128-0.074-0.236-0.178-0.315-0.303l-0.291,0.216c0.116,0.16,0.267,0.282,0.453,0.366
	c0.186,0.085,0.384,0.127,0.594,0.127c0.291,0,0.545-0.082,0.761-0.247c0.216-0.164,0.324-0.402,0.324-0.712
	c0.001-0.087-0.011-0.174-0.035-0.258C41.181,26.416,41.156,26.35,41.125,26.287L41.125,26.287z M42.104,24.291h0.338v3.325h-0.338
	V24.291z M45.839,27.123h-0.01l-1.935-2.832h-0.423v3.326h0.339v-2.861h0.009l1.935,2.861h0.423v-3.326h-0.338V27.123z
	 M48.887,25.879v0.296h0.775v1.01c-0.219,0.144-0.518,0.216-0.897,0.216c-0.413,0-0.747-0.141-1-0.423
	c-0.253-0.28-0.389-0.647-0.38-1.024c0-0.404,0.127-0.747,0.38-1.029c0.254-0.282,0.587-0.423,1-0.423
	c0.401,0,0.722,0.128,0.963,0.385l0.235-0.235c-0.304-0.297-0.704-0.446-1.202-0.446s-0.911,0.165-1.24,0.495
	c-0.329,0.33-0.493,0.748-0.493,1.252s0.164,0.921,0.491,1.252c0.327,0.33,0.741,0.496,1.242,0.496c0.467,0,0.88-0.108,1.24-0.324
	v-1.498C50.001,25.879,48.887,25.879,48.887,25.879z"/>
</svg>
