<svg xmlns="http://www.w3.org/2000/svg" version="1.1" xmlns:xlink="http://www.w3.org/1999/xlink" width="1000" height="1000"><g clip-path="url(#SvgjsClipPath1080)"><rect width="1000" height="1000" fill="#ffffff"></rect><g transform="matrix(2.236421725239617,0,0,2.236421725239617,175.7188498402556,149.99999999999994)"><svg xmlns="http://www.w3.org/2000/svg" version="1.1" xmlns:xlink="http://www.w3.org/1999/xlink" width="290" height="313"><svg xmlns="http://www.w3.org/2000/svg" xml:space="preserve" viewBox="0 0 290 313"><path d="M291 149v165c-33.354 0-66.708 0-100.5-.468-.435-42.244-.471-84.021-.354-125.797.008-3.16-.94-5.1-3.419-7.024-26.9-20.873-53.666-41.92-80.6-62.747-2.725-2.108-3.5-4.245-3.488-7.473.104-27.296.041-54.593.07-81.89.009-8.98.14-17.96.558-26.84 28.948 22.719 57.552 45.336 86.83 68.486V36.875h17.831c0 14.837-.097 29.3.114 43.76.029 1.964 1.064 4.575 2.538 5.755 25.548 20.439 51.232 40.708 76.92 60.97.986.777 2.326 1.103 3.5 1.64M1 213.469c4.393-2.915 8.905-5.17 13.16-7.836 28.004-17.542 55.952-35.172 83.918-52.773.8-.504 1.596-1.014 3.04-1.933V283.95h73.816c0 9.948 0 19.531.033 29.582C117.092 314 59.185 314 1 314z"></path></svg></svg></g></g><defs><clipPath id="SvgjsClipPath1080"><rect width="1000" height="1000" x="0" y="0" rx="200" ry="200"></rect></clipPath></defs></svg>